<?xml version="1.0" encoding="utf-8"?>
<!-- Generator: Adobe Illustrator 20.1.0, SVG Export Plug-In . SVG Version: 6.00 Build 0)  -->
<svg version="1.1" id="Слой_1" xmlns="http://www.w3.org/2000/svg" xmlns:xlink="http://www.w3.org/1999/xlink" x="0px" y="0px"
	 viewBox="0 0 31.5 22.1" style="enable-background:new 0 0 31.5 22.1;" xml:space="preserve">
<style type="text/css">
	.st0{fill:#FFFFFF;}
</style>
<title>ic-arrow</title>
<g id="Layer_2">
	<g id="Capa_1">
		<path class="st0" d="M21.2,0.3c-0.4-0.5-1.1-0.6-1.6-0.2s-0.6,1.1-0.2,1.6c0,0.1,0.1,0.1,0.2,0.2l8,8H1.1C0.5,9.9,0,10.4,0,11
			c0,0,0,0,0,0.1c0,0.6,0.5,1.1,1.1,1.1c0,0,0,0,0,0h26.6l-8,8c-0.4,0.4-0.4,1.1,0,1.6c0.4,0.4,1.1,0.4,1.6,0c0,0,0,0,0,0l10-10
			c0.4-0.4,0.4-1.1,0-1.5c0,0,0,0,0,0L21.2,0.3z"/>
	</g>
</g>
</svg>
