<svg width="20" height="20" viewBox="0 0 20 20" fill="none" xmlns="http://www.w3.org/2000/svg">
<mask id="path-1-inside-1" fill="white">
<path fill-rule="evenodd" clip-rule="evenodd" d="M2.5 6.5C3.32843 6.5 4 5.82843 4 5C4 4.17157 3.32843 3.5 2.5 3.5C1.67157 3.5 1 4.17157 1 5C1 5.82843 1.67157 6.5 2.5 6.5ZM2.5 7.5C3.88071 7.5 5 6.38071 5 5C5 3.61929 3.88071 2.5 2.5 2.5C1.11929 2.5 0 3.61929 0 5C0 6.38071 1.11929 7.5 2.5 7.5Z"/>
</mask>
<path d="M2 5C2 4.72386 2.22386 4.5 2.5 4.5V8.5C4.433 8.5 6 6.933 6 5H2ZM2.5 5.5C2.22386 5.5 2 5.27614 2 5H6C6 3.067 4.433 1.5 2.5 1.5V5.5ZM3 5C3 5.27614 2.77614 5.5 2.5 5.5V1.5C0.567003 1.5 -1 3.067 -1 5H3ZM2.5 4.5C2.77614 4.5 3 4.72386 3 5H-1C-1 6.933 0.567003 8.5 2.5 8.5V4.5ZM3 5C3 5.27614 2.77614 5.5 2.5 5.5V9.5C4.98528 9.5 7 7.48528 7 5H3ZM2.5 4.5C2.77614 4.5 3 4.72386 3 5H7C7 2.51472 4.98528 0.5 2.5 0.5V4.5ZM2 5C2 4.72386 2.22386 4.5 2.5 4.5V0.5C0.0147186 0.5 -2 2.51472 -2 5H2ZM2.5 5.5C2.22386 5.5 2 5.27614 2 5H-2C-2 7.48528 0.0147185 9.5 2.5 9.5V5.5Z" fill="#FF3C00" mask="url(#path-1-inside-1)"/>
<mask id="path-3-inside-2" fill="white">
<path fill-rule="evenodd" clip-rule="evenodd" d="M17.5 6.5C18.3284 6.5 19 5.82843 19 5C19 4.17157 18.3284 3.5 17.5 3.5C16.6716 3.5 16 4.17157 16 5C16 5.82843 16.6716 6.5 17.5 6.5ZM17.5 7.5C18.8807 7.5 20 6.38071 20 5C20 3.61929 18.8807 2.5 17.5 2.5C16.1193 2.5 15 3.61929 15 5C15 6.38071 16.1193 7.5 17.5 7.5Z"/>
</mask>
<path d="M17 5C17 4.72386 17.2239 4.5 17.5 4.5V8.5C19.433 8.5 21 6.933 21 5H17ZM17.5 5.5C17.2239 5.5 17 5.27614 17 5H21C21 3.067 19.433 1.5 17.5 1.5V5.5ZM18 5C18 5.27614 17.7761 5.5 17.5 5.5V1.5C15.567 1.5 14 3.067 14 5H18ZM17.5 4.5C17.7761 4.5 18 4.72386 18 5H14C14 6.933 15.567 8.5 17.5 8.5V4.5ZM18 5C18 5.27614 17.7761 5.5 17.5 5.5V9.5C19.9853 9.5 22 7.48528 22 5H18ZM17.5 4.5C17.7761 4.5 18 4.72386 18 5H22C22 2.51472 19.9853 0.5 17.5 0.5V4.5ZM17 5C17 4.72386 17.2239 4.5 17.5 4.5V0.5C15.0147 0.5 13 2.51472 13 5H17ZM17.5 5.5C17.2239 5.5 17 5.27614 17 5H13C13 7.48528 15.0147 9.5 17.5 9.5V5.5Z" fill="#FF3C00" mask="url(#path-3-inside-2)"/>
<path d="M3.75 6.875C3.75 6.875 4.16667 13.125 10 13.125C15.8333 13.125 16.25 6.875 16.25 6.875" stroke="#FF3C00"/>
<path d="M5 17.5H-2.08616e-07" stroke="#FF3C00"/>
<path d="M20 17.5H15" stroke="#FF3C00"/>
<path d="M16.25 6.43827V17.4997H18.75V6.43799" stroke="#FF3C00"/>
<path d="M1.25 6.43827V17.4997H3.75V6.43799" stroke="#FF3C00"/>
</svg>
