<svg width="20" height="20" viewBox="0 0 20 20" fill="none" xmlns="http://www.w3.org/2000/svg">
<path d="M16.5 7C16.5 9.59221 14.9507 12.7352 13.2699 15.2875C12.4382 16.5505 11.5918 17.6428 10.9259 18.4159C10.5922 18.8032 10.3087 19.1047 10.0987 19.3057C10.0594 19.3433 10.0238 19.3763 9.99192 19.4049C9.96137 19.379 9.92747 19.3495 9.89024 19.3159C9.68118 19.1277 9.39854 18.8439 9.06581 18.4767C8.40156 17.7438 7.55696 16.6999 6.72692 15.4703C5.05323 12.9907 3.5 9.84519 3.5 7C3.5 3.41015 6.41015 0.5 10 0.5C13.5899 0.5 16.5 3.41015 16.5 7Z" stroke="#FF3C00"/>
<circle cx="10" cy="7" r="3.5" stroke="#FF3C00"/>
</svg>
