<?xml version="1.0" encoding="utf-8"?>
<!-- Generator: Adobe Illustrator 21.1.0, SVG Export Plug-In . SVG Version: 6.00 Build 0)  -->
<svg version="1.1" id="Слой_1" xmlns="http://www.w3.org/2000/svg" xmlns:xlink="https://www.w3.org/1999/xlink" x="0px" y="0px"
	 viewBox="0 0 68.1 100" style="enable-background:new 0 0 68.1 100;" xml:space="preserve">
<style type="text/css">
	.st0{fill:#D4D3D5;}
	.st1{fill:#FFFFFF;}
</style>
<g>
	<g>
		<polygon class="st1" points="53.8,53.5 53.8,53.5 53.8,53.5 		"/>
		<polygon class="st1" points="53.6,54.2 53.6,54.2 53.6,54.2 		"/>
		<polygon class="st1" points="15.9,58.7 15.9,58.7 15.9,58.7 		"/>
		<polygon class="st1" points="53.4,55.2 53.4,55.2 53.4,55.2 		"/>
		<polygon class="st1" points="53.8,53.1 53.8,53.1 53.8,53.1 		"/>
		<polygon class="st1" points="53.8,53 53.8,53 53.8,53 		"/>
		<path class="st1" d="M62,48.9l-0.1-0.1v-6.1c0,0,0-0.1,0-0.1l-1-15.9l0.2-0.1c4.4-2.4,7.1-6.4,7.1-10.8c0-7.1-6.9-12.9-15.3-12.9
			c-2.8,0-5.4,0.6-7.8,1.8l-0.2,0.1l-0.1-0.2C42,1.7,38.1,0,34.1,0c-4,0-7.9,1.7-10.6,4.7l-0.1,0.2l-0.2-0.1c-2.4-1.2-5-1.8-7.8-1.8
			c-4.1,0-7.9,1.3-10.8,3.7C4.1,7,4,7.8,4.4,8.3c0.2,0.2,0.5,0.4,0.8,0.4c0.3,0,0.6-0.1,0.9-0.3c2.5-2,5.7-3.1,9.3-3.1
			c2.8,0,5.4,0.7,7.7,2c0.5,0.3,1.2,0.2,1.6-0.3c2.2-2.9,5.7-4.7,9.5-4.7c3.7,0,7.3,1.7,9.5,4.7c0.4,0.5,1,0.6,1.6,0.3
			c2.2-1.3,4.9-2,7.7-2c7.1,0,13,4.7,13,10.5c0,3.8-2.5,7.3-6.6,9.1c-0.4,0.2-0.7,0.7-0.7,1.2l1,15.6l-0.3,0
			c-1.3,0.1-2.5,0.2-3.8,0.3c-14.1,1.1-28.5,1.1-42.6,0c-1.3-0.1-2.5-0.2-3.8-0.3l-0.3,0l1-15.6c0-0.5-0.2-0.9-0.7-1.2
			c-4.1-1.9-6.6-5.4-6.6-9.1c0-0.9,0.1-1.7,0.4-2.6C3,12.6,2.6,11.9,2,11.7c-0.3-0.1-0.6-0.1-0.9,0.1c-0.3,0.1-0.5,0.4-0.6,0.7
			C0.2,13.6,0,14.7,0,15.8c0,4.4,2.6,8.5,7.1,10.8l0.2,0.1l-1,15.9c0,0.1,0,0.1,0,0.1v6.1l-0.1,0.1c-2.1,1.2-3.4,3.4-3.4,5.8
			c0,3.6,3,6.6,6.6,6.6h5l0.1,0.1c2.4,4.3,6,7.6,10.4,9.7l0.2,0.1v0.7l-0.3,0c-0.1,0-0.3,0-0.4,0c-0.9,0-1.8,0.3-2.5,1l-2.7,2.5
			C13,77.5,9,83.2,9,89.5v9.3c0,0.7,0.5,1.2,1.2,1.2h47.7c0.7,0,1.2-0.5,1.2-1.2v-9.3c0-6.3-4-12.1-9.9-14.3l-0.1-0.1l-2.6-2.4
			c-0.8-0.7-1.8-1.1-2.9-0.9l-0.3,0v-0.7l0.2-0.1c4.4-2,8-5.4,10.4-9.7l0.1-0.1h5c3.6,0,6.6-3,6.6-6.6C65.5,52.3,64.2,50.1,62,48.9z
			 M56.6,44.3l0.3,0c0.8-0.1,1.5-0.1,2.3-0.2l0.3,0v4.1l-0.3,0c-0.1,0-0.2,0-0.3,0h-2.3V44.3z M8.6,44.1l0.3,0
			c0.8,0.1,1.5,0.1,2.3,0.2l0.3,0v3.8H9.2c-0.1,0-0.2,0-0.3,0l-0.3,0V44.1z M9.2,58.9C6.9,58.9,5,57,5,54.7c0-1.8,1.1-3.4,2.8-4
			c0.5-0.2,0.9-0.2,1.4-0.2h2.3l0,1.3c0,0.1,0,0.2,0,0.3l0,0.3c0,0.1,0,0.2,0,0.3l0,0l0,0.1c0,0.1,0,0.2,0,0.3l0,0.2
			c0,0.1,0,0.3,0.1,0.4l0.3,1.4c0,0.1,0,0.2,0.1,0.3l0.1,0.3c0,0.1,0.1,0.2,0.1,0.3l0.1,0.5c0.1,0.2,0.1,0.4,0.2,0.6l0.1,0.3
			c0.1,0.2,0.1,0.4,0.2,0.6l0.3,0.7H9.2z M23.3,74.6c0.4-0.4,1-0.4,1.5-0.2l6.1,3.3l0,0.2c0,0.1,0,0.1,0,0.2l-0.2,1.9L21.7,76
			L23.3,74.6z M35.9,75.8l-0.1-0.1c-0.4-0.2-0.8-0.3-1.3-0.3h-0.9c-0.5,0-0.9,0.1-1.3,0.3l-0.1,0.1l-5-2.7l0-0.2c0-0.2,0-0.3,0-0.4
			v-0.4l0.4,0.1c0.2,0.1,0.5,0.1,0.7,0.2l0.2,0c0.2,0.1,0.4,0.1,0.7,0.2c0.3,0.1,0.5,0.1,0.8,0.2l0.2,0c0.2,0,0.5,0.1,0.7,0.1
			c0.3,0,0.5,0.1,0.8,0.1l0.2,0c0.2,0,0.5,0,0.7,0.1c0.3,0,0.5,0,0.8,0l0.2,0c0.5,0,1,0,1.5,0l0.2,0c0.2,0,0.5,0,0.7,0
			c0.3,0,0.5,0,0.7-0.1l0.2,0c0.2,0,0.5-0.1,0.7-0.1c0.3,0,0.5-0.1,0.7-0.1l0.2,0c0.2,0,0.5-0.1,0.7-0.1c0.3-0.1,0.5-0.1,0.7-0.2
			l0.2,0c0.2-0.1,0.5-0.1,0.7-0.2l0.3-0.1l0.1,0.3c0,0.2,0,0.3,0,0.4l0,0.2l-0.1,0.1L35.9,75.8z M36.4,91.7l-1.3-0.9
			c-0.2-0.1-0.4-0.2-0.7-0.2h-2.3l1-12.2c0-0.1,0.1-0.2,0.1-0.3c0.1-0.1,0.3-0.2,0.4-0.2h0.9c0.2,0,0.3,0.1,0.4,0.2
			c0.1,0.1,0.1,0.2,0.1,0.3L36.4,91.7z M48.6,77.6l0.1,0c4.9,2,8,6.6,8,11.9v8.1H11.4v-8.1c0-5.3,3.1-9.9,8-11.9l0.1,0l5.7,2.6h-4.4
			c-0.7,0-1.2,0.5-1.2,1.2v11.5c0,0.7,0.5,1.2,1.2,1.2s1.2-0.5,1.2-1.2V82.6h8.4l-0.7,9c0,0.3,0.1,0.7,0.3,0.9
			c0.2,0.2,0.5,0.4,0.9,0.4h3.2l3.1,2.2c0.4,0.3,0.9,0.3,1.3,0.1c0.4-0.2,0.6-0.7,0.6-1.1l-1.2-11.5L48.6,77.6z M43.4,74.4
			c0.5-0.3,1.1-0.2,1.5,0.2h0l1.5,1.4l-8.8,4l-0.3-2.3L43.4,74.4z M54.2,51.3c0,0.2,0,0.3,0,0.4c0,0.1,0,0.2,0,0.3l0,0.1
			c0,0.2,0,0.3,0,0.5l-0.1,1l-0.3,0l0.3,0.1l-0.2,1.1c0,0.2-0.1,0.4-0.1,0.6l-0.3,0l0.3,0.1l-0.1,0.2c0,0.1,0,0.2-0.1,0.3l-0.1,0.2
			c-0.1,0.2-0.1,0.4-0.2,0.5l-0.1,0.3c-0.1,0.2-0.1,0.3-0.2,0.5L53,57.7c-0.1,0.2-0.2,0.4-0.3,0.6l-0.3,0l0,0l0.3,0.1
			c0,0.1-0.1,0.2-0.1,0.3l0,0.1c-0.1,0.1-0.1,0.2-0.2,0.4l-0.2,0.4c-2.2,4.4-5.9,7.9-10.5,9.7c-2.4,1-5,1.5-7.6,1.5
			c-0.5,0-1,0-1.5-0.1c-0.3,0-0.6,0-0.9-0.1l-0.2,0c-1.6-0.2-3.1-0.6-4.5-1.1c-0.2-0.1-0.3-0.1-0.5-0.2c-4.6-1.9-8.3-5.3-10.5-9.7
			c-0.1-0.1-0.1-0.3-0.2-0.4l0.2-0.2v0L15.7,59l-0.3-0.7c-0.1-0.2-0.2-0.4-0.2-0.6l-0.1-0.3c-0.1-0.2-0.1-0.3-0.2-0.5
			c0-0.1-0.1-0.2-0.1-0.3c-0.1-0.2-0.1-0.3-0.1-0.5l0-0.1l-0.2-0.7c0-0.2-0.1-0.4-0.1-0.5l0,0l-0.1-0.5l0.3-0.1l-0.3,0.1l-0.1-0.7
			c0-0.1,0-0.2,0-0.3L14,52.5c0-0.1,0-0.2,0-0.3l0-0.2c0-0.1,0-0.2,0-0.3l0-1.1v-6.1l0.3,0c6.6,0.5,13.3,0.7,19.9,0.7
			s13.3-0.2,19.9-0.7l0.3,0L54.2,51.3z M58.9,58.9H55l0.3-0.7c0.1-0.2,0.1-0.3,0.2-0.5c0-0.1,0.1-0.3,0.1-0.4
			c0.1-0.2,0.1-0.4,0.2-0.6l0.3,0c0,0,0,0,0,0l-0.3-0.1l0.1-0.5c0-0.1,0.1-0.2,0.1-0.3c0.1-0.2,0.1-0.5,0.1-0.7l0.2-1
			c0-0.1,0-0.2,0-0.3l0.1-1.1c0-0.2,0-0.4,0-0.5l0-0.1c0-0.1,0-0.2,0-0.3c0-0.1,0-0.3,0-0.4l0.3-0.1v0l-0.3,0l0-0.9h2.3
			c0.5,0,1,0.1,1.4,0.2c1.7,0.6,2.8,2.2,2.8,4C63.1,57,61.2,58.9,58.9,58.9z"/>
	</g>
	<path class="st1" d="M23.7,48.2c-0.7,0-1.2,0.5-1.2,1.2v0.4c0,0.7,0.5,1.2,1.2,1.2s1.2-0.5,1.2-1.2v-0.4
		C24.9,48.7,24.3,48.2,23.7,48.2z"/>
	<path class="st1" d="M43.9,93c0-0.1-0.1-0.1-0.1-0.2c0-0.1-0.1-0.1-0.1-0.2c-0.2-0.2-0.5-0.4-0.8-0.4c-0.3,0-0.6,0.1-0.8,0.3
		c-0.1,0.1-0.1,0.1-0.1,0.2c0,0.1-0.1,0.1-0.1,0.2c0,0.1-0.1,0.1-0.1,0.2c0,0.1,0,0.2,0,0.2c0,0.1,0,0.2,0,0.2c0,0.1,0,0.1,0.1,0.2
		c0,0.1,0.1,0.1,0.1,0.2c0,0.1,0.1,0.1,0.1,0.2c0.4,0.4,1.2,0.4,1.7,0c0.1-0.1,0.1-0.1,0.1-0.2c0-0.1,0.1-0.1,0.1-0.2
		c0-0.1,0.1-0.1,0.1-0.2c0-0.1,0-0.2,0-0.2c0-0.1,0-0.2,0-0.2C44,93.2,44,93.1,43.9,93z"/>
	<path class="st1" d="M44.4,48.2c-0.7,0-1.2,0.5-1.2,1.2v0.4c0,0.7,0.5,1.2,1.2,1.2c0.7,0,1.2-0.5,1.2-1.2v-0.4
		C45.6,48.7,45.1,48.2,44.4,48.2z"/>
	<path class="st1" d="M43.9,86.7c0-0.1-0.1-0.1-0.1-0.2c0-0.1-0.1-0.1-0.1-0.2c-0.2-0.2-0.5-0.3-0.8-0.3c-0.3,0-0.6,0.1-0.8,0.3
		c-0.1,0.1-0.1,0.1-0.1,0.2c0,0.1-0.1,0.1-0.1,0.2c0,0.1-0.1,0.1-0.1,0.2c0,0.1,0,0.2,0,0.2c0,0.1,0,0.2,0,0.2c0,0.1,0,0.1,0.1,0.2
		c0,0.1,0.1,0.1,0.1,0.2c0,0.1,0.1,0.1,0.1,0.2c0.4,0.4,1.2,0.4,1.7,0c0.1-0.1,0.1-0.1,0.1-0.2c0-0.1,0.1-0.1,0.1-0.2
		c0-0.1,0.1-0.1,0.1-0.2c0-0.1,0-0.2,0-0.2c0-0.1,0-0.2,0-0.2C44,86.9,44,86.8,43.9,86.7z"/>
	<path class="st1" d="M25.9,86.2c-0.1,0-0.1-0.1-0.2-0.1c-0.1,0-0.1-0.1-0.2-0.1c-0.1,0-0.2,0-0.2,0c-0.1,0-0.2,0-0.2,0
		c-0.1,0-0.1,0-0.2,0.1c-0.1,0-0.1,0.1-0.2,0.1c-0.1,0-0.1,0.1-0.2,0.1c-0.2,0.2-0.3,0.5-0.3,0.8c0,0.1,0,0.2,0,0.2
		c0,0.1,0,0.2,0.1,0.2c0,0.1,0.1,0.1,0.1,0.2c0,0.1,0.1,0.1,0.1,0.2c0.1,0,0.1,0.1,0.2,0.1c0.1,0,0.1,0.1,0.2,0.1
		c0.1,0,0.1,0.1,0.2,0.1c0.1,0,0.3,0,0.5,0c0.1,0,0.1,0,0.2-0.1c0.1,0,0.1-0.1,0.2-0.1c0.1,0,0.1-0.1,0.2-0.1c0-0.1,0.1-0.1,0.1-0.2
		c0-0.1,0.1-0.1,0.1-0.2c0-0.1,0.1-0.1,0.1-0.2c0-0.1,0-0.1,0-0.2c0-0.3-0.1-0.6-0.3-0.8C26.1,86.3,26,86.2,25.9,86.2z"/>
	<path class="st1" d="M24.6,94.5c0.1,0,0.1,0.1,0.2,0.1c0.1,0,0.1,0.1,0.2,0.1c0.1,0,0.3,0,0.5,0c0.1,0,0.1,0,0.2-0.1
		c0.1,0,0.1-0.1,0.2-0.1c0.1,0,0.1-0.1,0.2-0.1c0.2-0.2,0.3-0.5,0.3-0.8c0-0.1,0-0.2,0-0.2c0-0.1,0-0.2-0.1-0.2
		c0-0.1-0.1-0.1-0.1-0.2c0-0.1-0.1-0.1-0.1-0.2c-0.1-0.1-0.1-0.1-0.2-0.1c-0.1,0-0.1-0.1-0.2-0.1c-0.1,0-0.1-0.1-0.2-0.1
		c-0.1,0-0.2,0-0.2,0c-0.1,0-0.2,0-0.2,0c-0.1,0-0.1,0-0.2,0.1c-0.1,0-0.1,0.1-0.2,0.1c-0.1,0-0.1,0.1-0.2,0.1
		c-0.1,0.1-0.1,0.1-0.1,0.2c0,0.1-0.1,0.1-0.1,0.2c0,0.1-0.1,0.1-0.1,0.2c0,0.1,0,0.2,0,0.2c0,0.3,0.1,0.6,0.3,0.8
		C24.5,94.4,24.6,94.4,24.6,94.5z"/>
	<path class="st1" d="M19.6,59c0.4,2,1.9,4.4,4.5,5.4c2,0.8,5.3,0.9,9.8-2.5l0.2-0.1l0.2,0.1c2.6,2,5,3,7.3,3c0.9,0,1.7-0.2,2.5-0.5
		c2.6-1,4.1-3.4,4.5-5.4c0.1-0.5-0.1-0.9-0.5-1.2c-0.4-0.3-0.9-0.3-1.3-0.1c-0.7,0.4-2.1,0.6-3.2,0.1c-0.8-0.3-1.3-0.9-1.4-1.7
		c0-0.1,0-0.1,0-0.2c-0.7-2.2-2.7-3.8-5-3.8c-1,0-1.9,0.3-2.8,0.8l-0.2,0.1L33.9,53c-0.8-0.5-1.8-0.8-2.8-0.8c-2.3,0-4.4,1.5-5,3.8
		c0,0.1,0,0.1-0.1,0.2c-0.2,0.8-0.6,1.4-1.4,1.7c-1.2,0.5-2.5,0.4-3.2-0.1c-0.4-0.2-0.9-0.2-1.3,0.1C19.7,58,19.5,58.5,19.6,59z
		 M23.4,60.5c0.8,0,1.5-0.2,2.2-0.5c1.4-0.6,2.4-1.8,2.8-3.3c0.3-1.3,1.5-2.2,2.8-2.2c0.8,0,1.5,0.3,2.1,0.9c0.4,0.5,1.3,0.5,1.7,0
		c0.5-0.6,1.3-0.9,2.1-0.9c1.3,0,2.4,0.9,2.8,2.1c0.4,1.5,1.3,2.7,2.8,3.3c0.7,0.3,1.4,0.5,2.2,0.5l0.6,0L44.9,61
		c-0.5,0.5-1.1,0.9-1.7,1.2c-2.1,0.8-4.7,0-7.7-2.3l-0.2-0.2c-0.1-0.1-0.2-0.2-0.4-0.3c-0.4-0.5-1.3-0.5-1.7,0
		c-0.1,0.1-0.2,0.2-0.3,0.3l-0.2,0.2c-2.2,1.7-4.3,2.6-6,2.6c-0.6,0-1.1-0.1-1.7-0.3c-0.6-0.2-1.2-0.6-1.7-1.2l-0.4-0.4L23.4,60.5z"
		/>
</g>
</svg>
