<svg xmlns="http://www.w3.org/2000/svg" xmlns:xlink="https://www.w3.org/1999/xlink" width="80" height="52" style=""><rect id="backgroundrect" width="100%" height="100%" x="0" y="0" fill="none" stroke="none"/>

<g class="currentLayer" style=""><title>Layer 1</title><path fill-rule="evenodd" opacity="0.8" fill="rgb(255, 255, 255)" d="M77.447,52 L2.553,52 C1.145,52 0,50.871 0,49.483 L0,2.515 C0,1.1280000000000001 1.145,0 2.553,0 L77.447,0 C78.855,0 80,1.1280000000000001 80,2.515 L80,49.483 C80,50.871 78.855,52 77.447,52 zM78.298,2.515 C78.298,2.053 77.916,1.677 77.447,1.677 L2.553,1.677 C2.084,1.677 1.702,2.053 1.702,2.515 L1.702,49.483 C1.702,49.946 2.084,50.322 2.553,50.322 L77.447,50.322 C77.916,50.322 78.298,49.946 78.298,49.483 L78.298,2.515 zM52.766,36.287 L46.562,25.589 L45.505,26.838 L42.553,26.838 L42.553,37.741 L40.851,37.741 L40.851,14.257 L42.553,14.257 L42.553,25.161 L44.707,25.161 L52.766,15.631 L52.766,14.257 L54.468,14.257 L54.468,16.239 L47.726,24.212 L54.468,35.841 L54.468,37.741 L52.766,37.741 L52.766,36.287 zM35.745,37.741 L34.043,37.741 L34.043,30.193 L23.83,30.193 L23.83,27.408 L32.754,15.096 L35.745,15.096 L35.745,28.515 L38.298,28.515 L38.298,30.193 L35.745,30.193 L35.745,37.741 zM34.043,16.774 L33.628,16.774 L25.532,27.946 L25.532,28.515 L34.043,28.515 L34.043,16.774 z" id="svg_1" class=""/></g></svg>
