<svg xmlns="http://www.w3.org/2000/svg" xmlns:xlink="https://www.w3.org/1999/xlink" width="80" height="58"><rect id="backgroundrect" width="100%" height="100%" x="0" y="0" fill="none" stroke="none"/>

<g class="currentLayer" style=""><title>Layer 1</title><path fill-rule="evenodd" opacity="0.8" fill="rgb(255, 255, 255)" d="M20.04732556962967,57.96999998128414 C20.03432556962967,57.96999998128414 20.02032556962967,57.96999998128414 20.007325569629668,57.96999998128414 L2.6943255696296693,57.96999998128414 C1.914325569629669,57.95999998128414 1.2493255696296692,57.67599998128414 0.7533255696296692,57.16999998128414 C0.25732556962966924,56.66399998128414 -0.010674430370330779,55.99599998128414 0.00032556962966920344,55.290999981284145 C0.02032556962966922,53.83499998128414 1.2343255696296693,52.68499998128414 2.7023255696296693,52.68799998128414 L8.69032556962967,52.68799998128414 L8.69032556962967,14.380999981284141 C8.70932556962967,12.972999981284142 9.82832556962967,11.828999981284142 11.24032556962967,11.768999981284141 C11.27932556962967,11.767999981284142 11.342325569629669,11.766999981284142 11.36332556962967,11.766999981284142 C12.809325569629669,11.766999981284142 14.00032556962967,12.928999981284141 14.01932556962967,14.372999981284142 L14.01932556962967,52.68799998128414 L20.01532556962967,52.68799998128414 C21.55332556962967,52.708999981284144 22.731325569629668,53.91099998128414 22.70932556962967,55.36699998128414 C22.699325569629668,56.071999981284144 22.41332556962967,56.73199998128414 21.90232556962967,57.223999981284145 C21.40132556962967,57.705999981284144 20.74432556962967,57.96999998128414 20.04732556962967,57.96999998128414 zM11.355325569629668,56.84499998128414 L20.01532556962967,56.84499998128414 C20.42932556962967,56.84399998128414 20.81932556962967,56.69799998128414 21.11332556962967,56.415999981284145 C21.40632556962967,56.13399998128414 21.57032556962967,55.75599998128414 21.57632556962967,55.35099998128414 C21.58832556962967,54.51599998128414 20.911325569629668,53.82599998128414 20.06732556962967,53.81299998128414 L13.45232556962967,53.81299998128414 C13.13932556962967,53.81299998128414 12.886325569629669,53.56199998128414 12.886325569629669,53.24999998128414 L12.886325569629669,14.380999981284141 C12.87532556962967,13.552999981284142 12.22532556962967,12.897999981284142 11.335325569629669,12.891999981284142 L11.26432556962967,12.330999981284142 L11.28832556962967,12.892999981284142 C10.47832556962967,12.927999981284142 9.83432556962967,13.583999981284142 9.82432556962967,14.38799998128414 L9.82432556962967,53.24999998128414 C9.82432556962967,53.56199998128414 9.57032556962967,53.81299998128414 9.25732556962967,53.81299998128414 L2.6943255696296693,53.81299998128414 C2.6863255696296693,53.81299998128414 2.679325569629669,53.81299998128414 2.6723255696296695,53.81299998128414 C1.830325569629669,53.81299998128414 1.1453255696296694,54.47899998128414 1.1333255696296693,55.30699998128414 C1.1273255696296691,55.711999981284144 1.2813255696296693,56.09399998128414 1.5663255696296692,56.38499998128414 C1.850325569629669,56.67599998128414 2.232325569629669,56.83899998128414 2.6423255696296692,56.84499998128414 L11.355325569629668,56.84499998128414 zM11.26432556962967,12.330999981284142 L11.274325569629669,12.330999981284142 L11.26432556962967,12.330999981284142 zM77.36732556962967,57.96999998128414 C77.35432556962967,57.96999998128414 77.34132556962967,57.96999998128414 77.32832556962967,57.96999998128414 L60.01532556962967,57.96999998128414 C59.235325569629666,57.95999998128414 58.57132556962967,57.67599998128414 58.07532556962967,57.16999998128414 C57.57932556962967,56.66399998128414 57.311325569629666,55.99599998128414 57.32132556962967,55.290999981284145 C57.34232556962967,53.84799998128414 58.53432556962967,52.68799998128414 59.985325569629666,52.68799998128414 C59.99832556962967,52.68799998128414 60.01032556962967,52.68799998128414 60.02332556962967,52.68799998128414 L66.01232556962967,52.68799998128414 L66.01232556962967,14.380999981284141 C66.03132556962967,12.971999981284142 67.15132556962966,11.828999981284142 68.56232556962966,11.768999981284141 C68.60232556962967,11.765999981284141 68.66432556962967,11.764999981284141 68.68432556962966,11.766999981284142 C69.37532556962967,11.766999981284142 70.03432556962967,12.031999981284141 70.53632556962967,12.515999981284141 C71.04632556962967,13.007999981284142 71.33232556962967,13.667999981284142 71.34032556962967,14.373999981284141 L71.34032556962967,52.68799998128414 L77.33632556962966,52.68799998128414 C78.87432556962968,52.708999981284144 80.05132556962967,53.91099998128414 80.03132556962967,55.36699998128414 C80.01032556962967,56.81099998128414 78.81932556962967,57.96999998128414 77.36732556962967,57.96999998128414 zM68.67632556962967,56.84499998128414 L77.33632556962966,56.84499998128414 C78.20232556962966,56.88799998128414 78.88632556962968,56.18699998128414 78.89832556962966,55.35099998128414 C78.91032556962966,54.51599998128414 78.23332556962967,53.82599998128414 77.38832556962967,53.81299998128414 L70.77332556962966,53.81299998128414 C70.46032556962967,53.81299998128414 70.20732556962967,53.56199998128414 70.20732556962967,53.24999998128414 L70.20732556962967,14.380999981284141 C70.20132556962967,13.983999981284141 70.03732556962967,13.604999981284141 69.74632556962968,13.322999981284141 C69.45232556962966,13.038999981284142 69.05732556962967,12.886999981284141 68.65632556962967,12.891999981284142 L68.58632556962966,12.330999981284142 L68.61032556962967,12.892999981284142 C67.80032556962966,12.927999981284142 67.15632556962967,13.583999981284142 67.14532556962966,14.38799998128414 L67.14532556962966,53.24999998128414 C67.14532556962966,53.56199998128414 66.89132556962967,53.81299998128414 66.57832556962967,53.81299998128414 L60.01532556962967,53.81299998128414 C59.180325569629666,53.82099998128414 58.46632556962967,54.47199998128414 58.45432556962967,55.30699998128414 C58.44832556962967,55.711999981284144 58.60232556962967,56.09399998128414 58.88732556962967,56.38499998128414 C59.17232556962967,56.67599998128414 59.55432556962967,56.83899998128414 59.96332556962967,56.84499998128414 L68.67632556962967,56.84499998128414 zM68.58632556962966,12.330999981284142 L68.59632556962967,12.330999981284142 L68.58632556962966,12.330999981284142 zM39.07632556962967,28.556999981284143 C31.37132556962967,28.556999981284143 23.93532556962967,25.54599998128414 16.81632556962967,19.523999981284142 C16.57832556962967,19.32299998128414 16.54932556962967,18.966999981284143 16.75232556962967,18.730999981284143 C16.955325569629668,18.49399998128414 17.31332556962967,18.46499998128414 17.551325569629668,18.66799998128414 C31.51732556962967,30.480999981284143 46.13032556962967,30.47299998128414 62.22332556962967,18.643999981284143 C62.47432556962967,18.45999998128414 62.82932556962967,18.509999981284142 63.01632556962967,18.76099998128414 C63.20332556962967,19.01099998128414 63.14932556962967,19.36299998128414 62.89832556962967,19.547999981284143 C54.72832556962967,25.553999981284143 46.76932556962967,28.556999981284143 39.07632556962967,28.556999981284143 zM34.80132556962967,23.42099998128414 C34.69032556962967,23.42099998128414 34.57832556962967,23.38899998128414 34.48232556962967,23.32299998128414 C34.27932556962967,23.18599998128414 34.18732556962967,22.934999981284143 34.25732556962967,22.69999998128414 L35.31232556962967,19.13899998128414 C35.40132556962967,18.840999981284142 35.71732556962967,18.669999981284143 36.01632556962967,18.756999981284142 C36.31632556962967,18.84599998128414 36.488325569629666,19.157999981284142 36.39932556962967,19.45599998128414 L35.84132556962967,21.343999981284142 L35.96132556962967,21.24999998128414 C37.67332556962967,19.92799998128414 39.36832556962967,18.620999981284143 41.04032556962967,17.335999981284143 C41.28632556962967,17.14499998128414 41.64332556962967,17.189999981284142 41.83532556962967,17.436999981284142 C42.02732556962967,17.68299998128414 41.98132556962967,18.035999981284142 41.73332556962967,18.22599998128414 C40.06232556962967,19.509999981284142 38.36832556962967,20.817999981284142 36.65732556962967,22.13899998128414 L35.14932556962967,23.30299998128414 C35.04732556962967,23.38099998128414 34.924325569629666,23.42099998128414 34.80132556962967,23.42099998128414 zM45.88532556962967,23.073999981284143 C45.77432556962967,23.073999981284143 45.66232556962967,23.04099998128414 45.56632556962967,22.97699998128414 L42.17632556962967,20.684999981284143 C41.91732556962967,20.509999981284142 41.85132556962967,20.15999998128414 42.02732556962967,19.902999981284143 C42.20332556962967,19.646999981284143 42.55632556962967,19.579999981284143 42.814325569629666,19.75499998128414 L44.753325569629666,21.064999981284142 L43.01532556962967,16.31399998128414 C43.01232556962967,16.30499998128414 43.00832556962967,16.29599998128414 43.00632556962967,16.28699998128414 L42.57732556962967,15.10599998128414 C42.47132556962967,14.813999981284141 42.62332556962967,14.490999981284142 42.91832556962967,14.385999981284142 C43.21132556962967,14.279999981284142 43.53732556962967,14.431999981284141 43.64332556962967,14.723999981284141 L44.08132556962967,15.928999981284143 C44.08432556962967,15.937999981284143 44.08732556962967,15.945999981284142 44.09032556962967,15.954999981284143 L46.41832556962967,22.31899998128414 C46.50232556962967,22.547999981284143 46.427325569629666,22.805999981284142 46.23332556962967,22.95599998128414 C46.13032556962967,23.032999981284142 46.00832556962967,23.073999981284143 45.88532556962967,23.073999981284143 zM37.72632556962967,17.565999981284143 C37.616325569629666,17.565999981284143 37.50632556962967,17.53399998128414 37.40832556962967,17.46799998128414 L36.45532556962967,16.826999981284143 C36.442325569629666,16.81899998128414 36.42932556962967,16.81099998128414 36.41632556962967,16.80299998128414 L30.731325569629668,12.99699998128414 C30.52732556962967,12.859999981284142 30.43532556962967,12.607999981284141 30.50432556962967,12.373999981284141 C30.57232556962967,12.138999981284142 30.786325569629668,11.974999981284142 31.03232556962967,11.96799998128414 L35.16132556962967,11.849999981284142 C35.48432556962967,11.856999981284142 35.735325569629666,12.085999981284141 35.744325569629666,12.396999981284141 C35.753325569629666,12.706999981284142 35.50632556962967,12.965999981284142 35.19332556962967,12.974999981284142 L32.82732556962967,13.04199998128414 L37.01032556962967,15.84299998128414 C37.02432556962967,15.85099998128414 37.03832556962967,15.858999981284143 37.052325569629666,15.86899998128414 L38.04532556962967,16.53699998128414 C38.30432556962967,16.710999981284143 38.37132556962967,17.06099998128414 38.19632556962967,17.317999981284142 C38.08632556962967,17.47899998128414 37.90832556962967,17.565999981284143 37.72632556962967,17.565999981284143 zM45.92832556962967,14.864999981284141 C45.75732556962967,14.864999981284141 45.58932556962967,14.789999981284142 45.47832556962967,14.645999981284142 C45.28732556962967,14.399999981284141 45.33332556962967,14.046999981284142 45.58132556962967,13.856999981284142 L47.241325569629666,12.587999981284142 L42.14332556962967,12.757999981284142 C42.14232556962967,12.757999981284142 42.14132556962967,12.757999981284142 42.14032556962967,12.757999981284142 L40.924325569629666,12.796999981284142 C40.64532556962967,12.801999981284142 40.34932556962967,12.563999981284141 40.33932556962967,12.251999981284142 C40.32932556962967,11.941999981284141 40.57432556962967,11.681999981284141 40.88732556962967,11.671999981284142 L42.10232556962967,11.632999981284142 C42.10232556962967,11.632999981284142 42.10232556962967,11.632999981284142 42.10232556962967,11.632999981284142 L48.96432556962967,11.40399998128414 C49.23232556962967,11.397999981284142 49.43232556962967,11.546999981284142 49.51632556962967,11.77599998128414 C49.59932556962967,12.005999981284141 49.52332556962967,12.263999981284142 49.32932556962967,12.411999981284142 L46.27332556962967,14.748999981284141 C46.17032556962967,14.82699998128414 46.04832556962967,14.864999981284141 45.92832556962967,14.864999981284141 zM37.52132556962967,14.213999981284141 C37.46832556962967,14.213999981284141 37.41532556962967,14.206999981284142 37.36232556962967,14.190999981284142 C37.061325569629666,14.103999981284142 36.88932556962967,13.791999981284143 36.97732556962967,13.493999981284142 L37.36532556962967,12.172999981284141 C37.36532556962967,12.171999981284142 37.36532556962967,12.171999981284142 37.36532556962967,12.171999981284142 L39.26832556962967,5.640999981284142 C39.33732556962967,5.4059999812841415 39.55032556962967,5.241999981284142 39.79532556962967,5.233999981284142 C40.05432556962967,5.236999981284142 40.26432556962967,5.376999981284142 40.34632556962967,5.606999981284142 L41.62432556962967,9.147999981284142 C41.73032556962967,9.440999981284142 41.57732556962967,9.76299998128414 41.28232556962967,9.866999981284142 C40.98632556962967,9.972999981284142 40.66232556962967,9.819999981284141 40.55732556962967,9.527999981284141 L39.87032556962967,7.624999981284142 L38.45532556962967,12.481999981284142 C38.45532556962967,12.483999981284141 38.45432556962967,12.484999981284142 38.45432556962967,12.485999981284142 L38.06532556962967,13.808999981284142 C37.99332556962967,14.054999981284142 37.76632556962967,14.213999981284141 37.52132556962967,14.213999981284141 zM68.67632556962967,10.678999981284141 C65.70532556962966,10.678999981284141 63.28832556962967,8.283999981284142 63.28832556962967,5.338999981284141 C63.28832556962967,2.3949999812841414 65.70532556962966,-1.8715858446372025e-8 68.67632556962967,-1.8715858446372025e-8 C71.64732556962967,-1.8715858446372025e-8 74.06432556962967,2.3949999812841414 74.06432556962967,5.338999981284141 C74.06432556962967,8.283999981284142 71.64732556962967,10.678999981284141 68.67632556962967,10.678999981284141 zM68.67632556962967,1.1249999812841416 C66.33032556962966,1.1249999812841416 64.42132556962967,3.0159999812841414 64.42132556962967,5.338999981284141 C64.42132556962967,7.662999981284141 66.33032556962966,9.553999981284141 68.67632556962967,9.553999981284141 C71.02232556962967,9.553999981284141 72.93132556962966,7.662999981284141 72.93132556962966,5.338999981284141 C72.93132556962966,3.0159999812841414 71.02232556962967,1.1249999812841416 68.67632556962967,1.1249999812841416 zM11.354325569629669,10.678999981284141 C8.383325569629669,10.678999981284141 5.966325569629669,8.283999981284142 5.966325569629669,5.338999981284141 C5.966325569629669,2.3949999812841414 8.383325569629669,-1.8715858446372025e-8 11.354325569629669,-1.8715858446372025e-8 C14.325325569629669,-1.8715858446372025e-8 16.74232556962967,2.3949999812841414 16.74232556962967,5.338999981284141 C16.74232556962967,8.283999981284142 14.325325569629669,10.678999981284141 11.354325569629669,10.678999981284141 zM11.354325569629669,1.1249999812841416 C9.008325569629669,1.1249999812841416 7.100325569629669,3.0159999812841414 7.100325569629669,5.338999981284141 C7.100325569629669,7.662999981284141 9.008325569629669,9.553999981284141 11.354325569629669,9.553999981284141 C13.700325569629669,9.553999981284141 15.60932556962967,7.662999981284141 15.60932556962967,5.338999981284141 C15.60932556962967,3.0159999812841414 13.700325569629669,1.1249999812841416 11.354325569629669,1.1249999812841416 z" id="svg_1" class=""/></g></svg>
