<?xml version="1.0" encoding="utf-8"?>
<!-- Generator: Adobe Illustrator 21.1.0, SVG Export Plug-In . SVG Version: 6.00 Build 0)  -->
<svg version="1.1" id="Слой_1" xmlns="http://www.w3.org/2000/svg" xmlns:xlink="https://www.w3.org/1999/xlink" x="0px" y="0px"
	 viewBox="0 0 150 80" style="enable-background:new 0 0 150 80;" xml:space="preserve">
<style type="text/css">
	.st0{fill:#D4D4D4;}
</style>
<path class="st0" d="M63.3,14.9h-7.4l7.9,61.7c0.2,1.9,1.9,3.4,3.8,3.4h16.2c1.9,0,3.6-1.4,3.8-3.4l6.7-52.5l10.5,5.5l0.4-0.7
	c2-3.8,2.4-8.2,1.2-12.4c-1.3-4.1-4.1-7.5-7.9-9.6c-3.8-2-8.2-2.4-12.4-1.2c-4.1,1.3-7.5,4.1-9.6,7.9L76,14.5l0.8,0.4H64.9L60,0
	L39.2,16.5c-0.3,0.3-0.4,0.8-0.1,1.1c0.2,0.2,0.4,0.3,0.6,0.3c0.2,0,0.3-0.1,0.5-0.2L59.2,2.6L63.3,14.9z M92.3,14.9l-1-4.9
	c1.8-0.1,3.6,0.2,5.2,1.1c1.6,0.9,2.9,2.1,3.8,3.7l-5.2,2.1l0.3-2H92.3z M86.4,7.4c3.7-1.2,7.7-0.8,11.2,1c3.5,1.8,6,4.9,7.2,8.6
	c1.1,3.5,0.8,7.2-0.7,10.5l-9.6-5.1l0.2-1.4l7.3,3.9l0.4-0.7c1.1-2.1,1.3-4.6,0.5-6.8l-0.3-0.8l-7.8,3.6l0.2-1.5l7.5-3.1l-0.3-0.7
	c-1-2.2-2.7-4-4.9-5.1c-2.2-1.1-4.6-1.5-7-1.2l-0.8,0.1l1.3,6.2H89l-1.1-6.1L87,9.1c-2.3,0.6-4.2,2.2-5.3,4.3L81.4,14l1.7,0.9h-2.9
	l-2-1.1C80,10.7,82.9,8.4,86.4,7.4z M97.3,20.8l4.2-2c0.3,1.3,0.2,2.7-0.3,4L97.3,20.8z M87.4,14.9h-1l-2.9-1.5
	c0.8-1.1,1.8-2,3.1-2.6L87.4,14.9z M79.8,16.5h3.3H86h3.3H91h1.6h1l-0.1,1.1l-0.2,1.8L93,21.7l-0.2,1.7L86,76.4
	c-0.1,1.1-1.1,2-2.3,2H67.5c-1.1,0-2.1-0.9-2.3-2l-7.6-60H79.8z"/>
</svg>
