<svg xmlns="http://www.w3.org/2000/svg" xmlns:xlink="https://www.w3.org/1999/xlink" width="79" height="75"><rect id="backgroundrect" width="100%" height="100%" x="0" y="0" fill="none" stroke="none"/>

<g class="currentLayer" style=""><title>Layer 1</title><path fill-rule="evenodd" opacity="0.8" fill="rgb(255, 255, 255)" d="M78.95581382155419,28.661999994874 C78.82781382155419,28.269999994874002 78.49581382155418,27.982999994874 78.08981382155419,27.912999994874 L52.54081382155418,23.536999994874 L40.484813821554184,0.5919999948740007 C40.292813821554184,0.22699999487400058 39.917813821554184,-5.125999437416429e-9 39.50481382155419,-5.125999437416429e-9 C39.09281382155418,-5.125999437416429e-9 38.71681382155418,0.22699999487400058 38.52581382155418,0.5919999948740007 L26.468813821554185,23.536999994874 L0.9208138215541841,27.912999994874 C0.5138138215541841,27.982999994874 0.18281382155418402,28.269999994874002 0.05481382155418402,28.661999994874 C-0.07318617844581599,29.053999994874 0.026813821554183992,29.480999994874 0.31481382155418414,29.776999994874 L18.411813821554183,48.333999994874 L14.678813821554185,73.983999994874 C14.619813821554184,74.391999994874 14.789813821554183,74.796999994874 15.123813821554183,75.038999994874 C15.450813821554185,75.276999994874 15.901813821554185,75.314999994874 16.264813821554185,75.135999994874 L39.50481382155419,63.658999994874 L62.74581382155419,75.135999994874 C63.115813821554184,75.318999994874 63.55281382155418,75.281999994874 63.886813821554185,75.038999994874 C64.22081382155419,74.796999994874 64.39081382155419,74.391999994874 64.33181382155418,73.983999994874 L60.59881382155418,48.333999994874 L78.69481382155418,29.776999994874 C78.98281382155419,29.480999994874 79.08281382155418,29.053999994874 78.95581382155419,28.661999994874 zM59.25381382155418,47.179999994874 C59.014813821554185,47.424999994874 58.901813821554185,47.772999994874 58.950813821554185,48.111999994874 L62.28181382155418,72.661999994874 L39.99581382155419,61.875999994874 C39.688813821554184,61.724999994874004 39.32181382155419,61.724999994874004 39.014813821554185,61.875999994874 L16.728813821554184,72.661999994874 L20.147813821554184,48.377999994874 C20.197813821554185,48.039999994874 20.084813821554185,47.690999994874 19.844813821554183,47.446999994874 L2.926813821554184,29.739999994874 L26.937813821554183,25.182999994874 C27.274813821554183,25.124999994874 27.570813821554182,24.909999994874 27.730813821554182,24.606999994874002 L39.50481382155419,3.0419999948740006 L51.10181382155418,24.606999994874002 C51.26081382155419,24.909999994874 51.557813821554184,25.124999994874 51.89481382155419,25.182999994874 L76.43881382155418,29.739999994874 L59.25381382155418,47.179999994874 z" id="svg_1" class=""/></g></svg>
