<?xml version="1.0" encoding="utf-8"?>
<!-- Generator: Adobe Illustrator 21.1.0, SVG Export Plug-In . SVG Version: 6.00 Build 0)  -->
<svg version="1.1" id="Слой_1" xmlns="http://www.w3.org/2000/svg" xmlns:xlink="https://www.w3.org/1999/xlink" x="0px" y="0px"
	 viewBox="0 0 79 75" style="enable-background:new 0 0 79 75;" xml:space="preserve">
<style type="text/css">
	.st0{fill:#FFFFFF;}
</style>
<path class="st0" d="M48.7,75c0.4,0,0.7-0.3,0.7-0.7V42.8h8.5c8,0,14.4-6.5,14.4-14.4c0-7.8-5.8-14-13.5-14.6l-1.1-0.1l-0.4-1
	C54.7,5.1,47.5,0,39.5,0c-8,0-15.2,5.1-17.9,12.7l-0.3,0.9l-1.1,0.2c-7.7,0.5-13.5,6.8-13.5,14.6c0,8,6.5,14.4,14.4,14.4h8.5v31.6
	c0,0.4,0.3,0.7,0.7,0.7c0.4,0,0.7-0.3,0.7-0.7v-3.9h17v3.9C48,74.7,48.3,75,48.7,75z M48,59.7H31v-7.8h17V59.7z M48,50.6H31v-7.8h17
	V50.6z M48,41.4H31v-7.8h17V41.4z M30.3,27.7c-0.4,0-0.7,0.3-0.7,0.7v13.1h-8.5c-7.2,0-13.1-5.9-13.1-13.1c0-5.5,3.1-10.1,8.1-12.2
	c5-2.1,10.4-1,14.2,2.8c0.3,0.3,0.7,0.3,1,0c0.3-0.3,0.3-0.7,0-1c-1.9-1.9-4.3-3.2-6.9-3.8l-1.9-0.4l0.8-1.8
	c2.8-6.4,9.1-10.6,16.1-10.6c7,0,13.3,4.1,16.1,10.6l0.8,1.8l-1.9,0.4c-2.6,0.6-5,1.9-6.9,3.8c-0.3,0.3-0.3,0.7,0,1
	c0.3,0.3,0.7,0.3,1,0c3.8-3.8,9.2-4.9,14.2-2.8c5,2.1,8.1,6.7,8.1,12.2c0,7.2-5.9,13.1-13.1,13.1h-8.5V28.3c0-0.4-0.3-0.7-0.7-0.7
	c-0.4,0-0.7,0.3-0.7,0.7v3.9H31v-3.9C31,28,30.7,27.7,30.3,27.7z M31,69.1v-8h17v8H31z"/>
<text transform="matrix(1 0 0 1 72.3018 -10.2351)" style="font-family:'MyriadPro-Regular'; font-size:12px;">26,46 mm</text>
</svg>
