<svg xmlns="http://www.w3.org/2000/svg" xmlns:xlink="https://www.w3.org/1999/xlink" width="80" height="50"><rect id="backgroundrect" width="100%" height="100%" x="0" y="0" fill="none" stroke="none"/>

<g class="currentLayer" style=""><title>Layer 1</title><path fill-rule="evenodd" opacity="0.8" fill="rgb(255, 255, 255)" d="M74.2269999975562,34.0170000013113 L5.768999997556209,34.0170000013113 C1.9409999975562096,34.0170000013113 -2.4437904269647426e-9,31.800000001311304 -2.4437904269647426e-9,27.4260000013113 L-2.4437904269647426e-9,6.591000001311302 C-2.4437904269647426e-9,2.218000001311302 1.9409999975562096,1.311302205708742e-9 5.768999997556209,1.311302205708742e-9 L74.2269999975562,1.311302205708742e-9 C78.05499999755621,1.311302205708742e-9 79.99599999755621,2.218000001311302 79.99599999755621,6.591000001311302 L79.99599999755621,27.4260000013113 C79.99599999755621,31.800000001311304 78.05499999755621,34.0170000013113 74.2269999975562,34.0170000013113 zM78.3849999975562,6.591000001311302 C78.3849999975562,2.174000001311302 76.16299999755621,1.6080000013113023 74.2269999975562,1.6080000013113023 L5.768999997556209,1.6080000013113023 C3.8329999975562097,1.6080000013113023 1.6109999975562097,2.174000001311302 1.6109999975562097,6.591000001311302 L1.6109999975562097,27.4260000013113 C1.6109999975562097,31.843000001311303 3.8329999975562097,32.4100000013113 5.768999997556209,32.4100000013113 L74.2269999975562,32.4100000013113 C76.16299999755621,32.4100000013113 78.3849999975562,31.843000001311303 78.3849999975562,27.4260000013113 L78.3849999975562,6.591000001311302 zM69.79099999755621,25.587000001311303 L10.20599999755621,25.587000001311303 C9.76199999755621,25.587000001311303 9.400999997556209,25.226000001311302 9.400999997556209,24.7830000013113 C9.400999997556209,24.340000001311303 9.76199999755621,23.979000001311302 10.20599999755621,23.979000001311302 L69.79099999755621,23.979000001311302 C70.23499999755622,23.979000001311302 70.59699999755621,24.340000001311303 70.59699999755621,24.7830000013113 C70.59699999755621,25.226000001311302 70.23499999755622,25.587000001311303 69.79099999755621,25.587000001311303 zM20.533999997556208,40.1450000013113 C20.533999997556208,39.702000001311305 20.89499999755621,39.3410000013113 21.33899999755621,39.3410000013113 C21.78299999755621,39.3410000013113 22.14499999755621,39.702000001311305 22.14499999755621,40.1450000013113 C22.14499999755621,43.3070000013113 20.20999999755621,44.553000001311304 18.65499999755621,45.5540000013113 C17.05499999755621,46.5840000013113 16.07499999755621,47.312000001311304 16.07499999755621,49.211000001311305 C16.07499999755621,49.6540000013113 15.71399999755621,50.0150000013113 15.26899999755621,50.0150000013113 C14.82499999755621,50.0150000013113 14.46399999755621,49.6540000013113 14.46399999755621,49.211000001311305 C14.46399999755621,46.3400000013113 16.22699999755621,45.2040000013113 17.78199999755621,44.2030000013113 C19.25899999755621,43.2530000013113 20.533999997556208,42.431000001311304 20.533999997556208,40.1450000013113 zM42.54899999755621,40.1450000013113 C42.54899999755621,39.702000001311305 42.90999999755621,39.3410000013113 43.35499999755621,39.3410000013113 C43.79899999755621,39.3410000013113 44.15999999755621,39.702000001311305 44.15999999755621,40.1450000013113 C44.15999999755621,43.3080000013113 42.22599999755621,44.553000001311304 40.67199999755621,45.553000001311304 C39.07199999755621,46.583000001311305 38.09199999755621,47.3110000013113 38.09199999755621,49.211000001311305 C38.09199999755621,49.6540000013113 37.72999999755621,50.0150000013113 37.28599999755621,50.0150000013113 C36.84199999755621,50.0150000013113 36.47999999755621,49.6540000013113 36.47999999755621,49.211000001311305 C36.47999999755621,46.3400000013113 38.241999997556206,45.205000001311305 39.79699999755621,44.2030000013113 C41.27399999755621,43.2530000013113 42.54899999755621,42.431000001311304 42.54899999755621,40.1450000013113 zM64.5659999975562,40.1450000013113 C64.5659999975562,39.702000001311305 64.92699999755621,39.3410000013113 65.37099999755621,39.3410000013113 C65.81499999755621,39.3410000013113 66.17699999755621,39.702000001311305 66.17699999755621,40.1450000013113 C66.17699999755621,43.3080000013113 64.24299999755621,44.553000001311304 62.68799999755621,45.553000001311304 C61.08899999755621,46.583000001311305 60.107999997556206,47.3110000013113 60.107999997556206,49.211000001311305 C60.107999997556206,49.6540000013113 59.74699999755621,50.0150000013113 59.30199999755621,50.0150000013113 C58.857999997556206,50.0150000013113 58.49699999755621,49.6540000013113 58.49699999755621,49.211000001311305 C58.49699999755621,46.3400000013113 60.25799999755621,45.205000001311305 61.81399999755621,44.2030000013113 C63.28999999755621,43.2530000013113 64.5659999975562,42.431000001311304 64.5659999975562,40.1450000013113 z" id="svg_1" class=""/></g></svg>
