<svg xmlns="http://www.w3.org/2000/svg" xmlns:xlink="https://www.w3.org/1999/xlink" width="80" height="73"><rect id="backgroundrect" width="100%" height="100%" x="0" y="0" fill="none" stroke="none"/>

<g class="currentLayer" style=""><title>Layer 1</title><path fill-rule="evenodd" opacity="0.8" fill="rgb(255, 255, 255)" d="M78.22199996423721,72.9999999960661 L78.22199996423721,69.4819999960661 C78.22199996423721,68.0269999960661 77.02599996423722,66.84399999606609 75.55599996423722,66.84399999606609 L68.44399996423721,66.84399999606609 C66.97399996423721,66.84399999606609 65.77799996423721,68.0269999960661 65.77799996423721,69.4819999960661 L65.77799996423721,72.9999999960661 L63.99999996423722,72.9999999960661 L63.99999996423722,69.4819999960661 C63.99999996423722,67.05799999606609 65.99299996423721,65.08499999606609 68.44399996423721,65.08499999606609 L75.55599996423722,65.08499999606609 C78.00699996423721,65.08499999606609 79.99999996423722,67.05799999606609 79.99999996423722,69.4819999960661 L79.99999996423722,72.9999999960661 L78.22199996423721,72.9999999960661 zM77.33299996423722,45.734999996066094 L2.6669999642372133,45.734999996066094 C2.1749999642372133,45.734999996066094 1.777999964237213,45.34199999606609 1.777999964237213,44.855999996066096 L1.777999964237213,0.8799999960660934 C1.777999964237213,0.3939999960660935 2.1749999642372133,-3.933906533859499e-9 2.6669999642372133,-3.933906533859499e-9 L77.33299996423722,-3.933906533859499e-9 C77.82499996423721,-3.933906533859499e-9 78.22199996423721,0.3939999960660935 78.22199996423721,0.8799999960660934 L78.22199996423721,44.855999996066096 C78.22199996423721,45.34199999606609 77.82499996423721,45.734999996066094 77.33299996423722,45.734999996066094 zM76.44399996423721,1.7589999960660934 L3.554999964237213,1.7589999960660934 L3.554999964237213,43.97599999606609 L76.44399996423721,43.97599999606609 L76.44399996423721,1.7589999960660934 zM11.554999964237213,65.08499999606609 C14.005999964237214,65.08499999606609 15.999999964237212,67.05799999606609 15.999999964237212,69.4819999960661 L15.999999964237212,72.9999999960661 L14.221999964237213,72.9999999960661 L14.221999964237213,69.4819999960661 C14.221999964237213,68.0269999960661 13.025999964237213,66.84399999606609 11.554999964237213,66.84399999606609 L4.443999964237213,66.84399999606609 C2.9739999642372132,66.84399999606609 1.777999964237213,68.0269999960661 1.777999964237213,69.4819999960661 L1.777999964237213,72.9999999960661 L-3.5762786843029915e-8,72.9999999960661 L-3.5762786843029915e-8,69.4819999960661 C-3.5762786843029915e-8,67.05799999606609 1.9939999642372133,65.08499999606609 4.443999964237213,65.08499999606609 L11.554999964237213,65.08499999606609 zM10.666999964237213,60.68699999606609 L10.666999964237213,57.16899999606609 C10.666999964237213,54.743999996066094 12.660999964237213,52.770999996066095 15.110999964237212,52.770999996066095 L22.221999964237213,52.770999996066095 C24.672999964237214,52.770999996066095 26.666999964237213,54.743999996066094 26.666999964237213,57.16899999606609 L26.666999964237213,60.68699999606609 L24.888999964237215,60.68699999606609 L24.888999964237215,57.16899999606609 C24.888999964237215,55.71399999606609 23.692999964237213,54.53099999606609 22.221999964237213,54.53099999606609 L15.110999964237212,54.53099999606609 C13.640999964237214,54.53099999606609 12.443999964237213,55.71399999606609 12.443999964237213,57.16899999606609 L12.443999964237213,60.68699999606609 L10.666999964237213,60.68699999606609 zM25.777999964237214,65.08499999606609 L32.888999964237215,65.08499999606609 C35.33899996423721,65.08499999606609 37.33299996423721,67.05799999606609 37.33299996423721,69.4819999960661 L37.33299996423721,72.9999999960661 L35.55499996423721,72.9999999960661 L35.55499996423721,69.4819999960661 C35.55499996423721,68.0269999960661 34.35899996423721,66.84399999606609 32.888999964237215,66.84399999606609 L25.777999964237214,66.84399999606609 C24.306999964237214,66.84399999606609 23.110999964237212,68.0269999960661 23.110999964237212,69.4819999960661 L23.110999964237212,72.9999999960661 L21.332999964237214,72.9999999960661 L21.332999964237214,69.4819999960661 C21.332999964237214,67.05799999606609 23.326999964237213,65.08499999606609 25.777999964237214,65.08499999606609 zM31.99999996423721,60.68699999606609 L31.99999996423721,57.16899999606609 C31.99999996423721,54.743999996066094 33.99399996423721,52.770999996066095 36.443999964237214,52.770999996066095 L43.55499996423721,52.770999996066095 C46.00699996423721,52.770999996066095 47.99999996423721,54.743999996066094 47.99999996423721,57.16899999606609 L47.99999996423721,60.68699999606609 L46.22199996423721,60.68699999606609 L46.22199996423721,57.16899999606609 C46.22199996423721,55.71399999606609 45.025999964237215,54.53099999606609 43.55499996423721,54.53099999606609 L36.443999964237214,54.53099999606609 C34.973999964237215,54.53099999606609 33.77799996423721,55.71399999606609 33.77799996423721,57.16899999606609 L33.77799996423721,60.68699999606609 L31.99999996423721,60.68699999606609 zM53.33299996423721,60.68699999606609 L53.33299996423721,57.16899999606609 C53.33299996423721,54.743999996066094 55.32599996423721,52.770999996066095 57.77799996423721,52.770999996066095 L64.88899996423721,52.770999996066095 C67.33999996423721,52.770999996066095 69.33299996423722,54.743999996066094 69.33299996423722,57.16899999606609 L69.33299996423722,60.68699999606609 L67.55499996423721,60.68699999606609 L67.55499996423721,57.16899999606609 C67.55499996423721,55.71399999606609 66.35899996423721,54.53099999606609 64.88899996423721,54.53099999606609 L57.77799996423721,54.53099999606609 C56.306999964237214,54.53099999606609 55.110999964237216,55.71399999606609 55.110999964237216,57.16899999606609 L55.110999964237216,60.68699999606609 L53.33299996423721,60.68699999606609 zM47.110999964237216,65.08499999606609 L54.22199996423721,65.08499999606609 C56.67299996423721,65.08499999606609 58.66699996423721,67.05799999606609 58.66699996423721,69.4819999960661 L58.66699996423721,72.9999999960661 L56.888999964237215,72.9999999960661 L56.888999964237215,69.4819999960661 C56.888999964237215,68.0269999960661 55.69299996423722,66.84399999606609 54.22199996423721,66.84399999606609 L47.110999964237216,66.84399999606609 C45.64099996423721,66.84399999606609 44.443999964237214,68.0269999960661 44.443999964237214,69.4819999960661 L44.443999964237214,72.9999999960661 L42.66699996423721,72.9999999960661 L42.66699996423721,69.4819999960661 C42.66699996423721,67.05799999606609 44.659999964237215,65.08499999606609 47.110999964237216,65.08499999606609 z" id="svg_1" class=""/></g></svg>
