<?xml version="1.0" encoding="utf-8"?>
<!-- Generator: Adobe Illustrator 21.1.0, SVG Export Plug-In . SVG Version: 6.00 Build 0)  -->
<svg version="1.1" id="Слой_1" xmlns="http://www.w3.org/2000/svg" xmlns:xlink="https://www.w3.org/1999/xlink" x="0px" y="0px"
	 viewBox="0 0 150 80" style="enable-background:new 0 0 150 80;" xml:space="preserve">
<style type="text/css">
	.st0{fill:#D4D4D4;}
</style>
<path class="st0" d="M25.9,80l0.2,0c6.1,0,11.5-4.3,17.7-9.4c7.8-6.3,16.6-13.4,29-13.4c12.3,0,20.9,7,28.5,13.3
	c6.2,5.1,11.6,9.5,18,9.5c11.2,0,11.5-18.7,11.5-19.5c0.1-16.1-7.9-41.5-20-53.7C106.1,2.3,101.5,0,96.8,0c-4,0-6.6,1.6-9.4,3.3
	c-3.3,2-6.7,4.1-13.2,4.1c-6,0-9-1.8-12.2-3.7C59,1.9,55.8,0,49.9,0c-8,0-16.7,7.2-23.9,19.8c-6.9,12.1-11,27.2-11,40.3
	C15.1,78.3,25.4,79.9,25.9,80z M49.9,2.4c5.2,0,7.9,1.6,10.9,3.4c3.3,2,6.7,4,13.4,4c7.2,0,11.1-2.4,14.5-4.5
	c2.6-1.6,4.8-2.9,8.1-2.9c4,0,8,2,12.1,6.1c11.5,11.6,19.5,36.7,19.3,52c0,0.2-0.2,17-9.1,17c-5.5,0-10.5-4.1-16.4-9
	c-7.9-6.5-16.9-13.8-30-13.8c-13.2,0-22.4,7.4-30.5,14c-5.8,4.7-10.9,8.8-16,8.8c-0.9-0.2-8.6-2.1-8.6-17.5
	C17.6,33.1,34.8,2.4,49.9,2.4z M48.7,38.1c4.7,0,8.4-3.8,8.4-8.4s-3.8-8.4-8.4-8.4s-8.4,3.8-8.4,8.4S44.1,38.1,48.7,38.1z
	 M48.7,23.6c3.3,0,6,2.7,6,6s-2.7,6-6,6c-3.3,0-6-2.7-6-6S45.4,23.6,48.7,23.6z M48.7,44.3c8.1,0,14.6-6.6,14.6-14.6
	c0-8.1-6.6-14.6-14.6-14.6c-8.1,0-14.6,6.6-14.6,14.6C34.1,37.7,40.6,44.3,48.7,44.3z M48.7,17.4c6.7,0,12.2,5.5,12.2,12.2
	c0,6.7-5.5,12.2-12.2,12.2c-6.7,0-12.2-5.5-12.2-12.2C36.5,22.9,42,17.4,48.7,17.4z M84.9,33.4c0-0.7,0.5-1.2,1.2-1.2h2.7V29
	c0-0.7,0.5-1.2,1.2-1.2s1.2,0.5,1.2,1.2v3.2h2.5c0.7,0,1.2,0.5,1.2,1.2c0,0.7-0.5,1.2-1.2,1.2h-2.5v3.2c0,0.7-0.5,1.2-1.2,1.2
	s-1.2-0.5-1.2-1.2v-3.2h-2.7C85.4,34.6,84.9,34.1,84.9,33.4z M95.6,44.2c0-0.7,0.5-1.2,1.2-1.2h2.7v-3.2c0-0.7,0.5-1.2,1.2-1.2
	c0.7,0,1.2,0.5,1.2,1.2V43h2.5c0.7,0,1.2,0.5,1.2,1.2s-0.5,1.2-1.2,1.2H102v3.2c0,0.7-0.5,1.2-1.2,1.2c-0.7,0-1.2-0.5-1.2-1.2v-3.2
	h-2.7C96.2,45.4,95.6,44.9,95.6,44.2z M105.7,33.4c0-0.7,0.5-1.2,1.2-1.2h2.7V29c0-0.7,0.5-1.2,1.2-1.2c0.7,0,1.2,0.5,1.2,1.2v3.2
	h2.5c0.7,0,1.2,0.5,1.2,1.2c0,0.7-0.5,1.2-1.2,1.2H112v3.2c0,0.7-0.5,1.2-1.2,1.2c-0.7,0-1.2-0.5-1.2-1.2v-3.2h-2.7
	C106.2,34.6,105.7,34.1,105.7,33.4z M95.6,22.4c0-0.7,0.5-1.2,1.2-1.2h2.7V18c0-0.7,0.5-1.2,1.2-1.2c0.7,0,1.2,0.5,1.2,1.2v3.2h2.5
	c0.7,0,1.2,0.5,1.2,1.2c0,0.7-0.5,1.2-1.2,1.2H102v3.2c0,0.7-0.5,1.2-1.2,1.2c-0.7,0-1.2-0.5-1.2-1.2v-3.2h-2.7
	C96.2,23.6,95.6,23.1,95.6,22.4z"/>
</svg>
