<?xml version="1.0" encoding="utf-8"?>
<!-- Generator: Adobe Illustrator 20.1.0, SVG Export Plug-In . SVG Version: 6.00 Build 0)  -->
<svg version="1.1" id="Слой_1" xmlns="http://www.w3.org/2000/svg" xmlns:xlink="https://www.w3.org/1999/xlink" x="0px" y="0px"
	 viewBox="0 0 488.8 356.4" style="enable-background:new 0 0 488.8 356.4;" xml:space="preserve">
<style type="text/css">
	.st0{fill:#FFFFFF;}
</style>
<title>ic-card</title>
<g id="Layer_2">
	<g id="Layer_1-2">
		<path class="st0" d="M488.7,30.2c0-16.7-13.5-30.2-30.1-30.2c0,0,0,0-0.1,0H30.2C13.5,0,0,13.5,0,30.1c0,0,0,0,0,0.1v296
			c0,16.7,13.5,30.2,30.1,30.2c0,0,0,0,0.1,0h429.3c16.7,0,30.2-13.5,29.2-31.3V30.2z M468.9,132.4h-448v-30.2h448V132.4z
			 M19.8,31.3c0-5.7,4.6-10.4,10.4-10.4c0,0,0,0,0,0v-1h428.3c5.7,0,10.4,4.6,10.4,10.4c0,0,0,0,0,0v52.1H19.8V31.3z M468.9,326.2
			c0,5.7-4.6,10.4-10.4,10.4c0,0,0,0,0,0H30.2c-5.7,0-10.4-4.6-10.4-10.4c0,0,0,0,0,0v-173h449.1V326.2z"/>
	</g>
</g>
</svg>
