<?xml version="1.0" encoding="utf-8"?>
<!-- Generator: Adobe Illustrator 20.1.0, SVG Export Plug-In . SVG Version: 6.00 Build 0)  -->
<svg version="1.1" id="Слой_1" xmlns="http://www.w3.org/2000/svg" xmlns:xlink="https://www.w3.org/1999/xlink" x="0px" y="0px"
	 viewBox="0 0 490 490" style="enable-background:new 0 0 490 490;" xml:space="preserve">
<style type="text/css">
	.st0{fill:#FFFFFF;}
</style>
<title>Asset 1</title>
<g id="Layer_2">
	<g id="Layer_1-2">
		<path class="st0" d="M382.2,94.9c9.7-10.5,15.1-24.3,15.1-38.6C397.3,25,372.3,0,342,0c-23,0-76,34.4-97.2,65.3
			C222.9,34.4,170.1,1,148,1c-30.2,0-55.3,25-55.3,56.3c0,13.8,5,27.1,14.1,37.5H0v134.5h29.2V490h431.7V229.4H490V94.9H382.2z
			 M342,20.9c18.8,0,34.4,15.6,34.4,36.5c0,17.6-12.3,32.7-28.2,35.9h-84.6c-5.4-1.6-7.1-3.5-7.1-4.6C256.5,70.9,319,20.9,342,20.9z
			 M148,20.9c21.9,0,85.5,50,85.5,67.8c0,1.6-3.7,3.4-6.4,4.6h-85.2C126,90.1,113.7,75,113.7,57.4C113.6,37.5,129.3,20.9,148,20.9z
			 M182.4,469.1H50V229.4h132.4V469.1z M182.4,209.6H20.9v-93.8h161.6v93.8H182.4z M286.6,469.1h-83.4V115.7h83.4V469.1z
			 M439.9,469.1H307.5V229.4h132.4L439.9,469.1z M469,209.6H307.5v-93.8h161.6v93.8H469z"/>
	</g>
</g>
</svg>
