<?xml version="1.0" encoding="utf-8"?>
<!-- Generator: Adobe Illustrator 20.1.0, SVG Export Plug-In . SVG Version: 6.00 Build 0)  -->
<svg version="1.1" id="Слой_1" xmlns="http://www.w3.org/2000/svg" xmlns:xlink="https://www.w3.org/1999/xlink" x="0px" y="0px"
	 viewBox="0 0 52 48.3" style="enable-background:new 0 0 52 48.3;" xml:space="preserve">
<style type="text/css">
	.st0{fill:#FFFFFF;}
</style>
<title>heart</title>
<g id="Layer_2">
	<g id="Capa_1">
		<path class="st0" d="M51.9,14.4C51.2,6.1,45.2,0,37.8,0c-4.9,0-9.5,2.7-12,6.9C23.5,2.7,19,0,14.2,0C6.8,0,0.8,6.1,0.1,14.4
			c-0.2,1.8,0,3.7,0.4,5.5c1.1,4.6,3.6,8.8,7.2,12l18.1,16.4l18.4-16.4c3.6-3.2,6.1-7.4,7.2-12C52,18.1,52.1,16.3,51.9,14.4z
			 M49.5,19.4c-1,4.3-3.3,8.1-6.6,11L25.9,45.7L9.1,30.4c-3.3-2.9-5.6-6.7-6.6-11C2,17.9,1.9,16.3,2,14.7v-0.1C2.7,7.3,7.8,2,14.2,2
			c4.8,0.1,9.1,3,10.8,7.5l0.9,2.2l0.9-2.2C28.6,5,33,2,37.8,2c6.3,0,11.4,5.3,12.1,12.7C50.1,16.3,49.9,17.9,49.5,19.4L49.5,19.4z"
			/>
	</g>
</g>
</svg>
