<?xml version="1.0" encoding="utf-8"?>
<!-- Generator: Adobe Illustrator 20.1.0, SVG Export Plug-In . SVG Version: 6.00 Build 0)  -->
<svg version="1.1" id="Слой_1" xmlns="http://www.w3.org/2000/svg" xmlns:xlink="https://www.w3.org/1999/xlink" x="0px" y="0px"
	 viewBox="0 0 314 298.6" style="enable-background:new 0 0 314 298.6;" xml:space="preserve">
<style type="text/css">
	.st0{fill:#FFFFFF;}
</style>
<title>Asset 1</title>
<g id="Layer_2">
	<g id="Capa_1">
		<path class="st0" d="M310.7,141.1c-2.1-1.3-4.7-1.4-6.8-0.3l-61.5,31v-17.9c0-6.4-3.3-12.3-8.7-15.7
			c36.3-16.8,52.2-59.8,35.4-96.1S209.3-10.1,173,6.7c-15.4,7.1-27.8,19.4-35.1,34.7C120.8,5.3,77.6-10.2,41.4,7S-10.2,67.3,7,103.4
			c7.3,15.3,19.7,27.7,35.1,34.8c-5.4,3.4-8.7,9.3-8.7,15.7V280c0,10.3,8.3,18.6,18.6,18.6h171.8c10.2,0,18.5-8.3,18.5-18.6v-17.9
			l61.5,31c3.5,1.7,7.7,0.4,9.4-3.1c0.5-1,0.7-2.1,0.7-3.1V147C314,144.6,312.7,142.3,310.7,141.1z M203.3,14
			c32.3,0,58.4,26.2,58.4,58.4s-26.2,58.4-58.4,58.4s-58.4-26.2-58.4-58.4C144.9,40.2,171.1,14,203.3,14z M167.4,135.3h-59.1
			c12.9-7.4,23.2-18.5,29.5-31.8C144.3,116.8,154.6,128,167.4,135.3z M14,72.4C14,40.2,40.2,14,72.4,14s58.4,26.2,58.4,58.4
			s-26.2,58.4-58.4,58.4C40.2,130.8,14,104.7,14,72.4z M228.3,280c0,2.5-2,4.5-4.5,4.5H52c-2.5,0-4.5-2-4.6-4.5V153.9
			c0-2.5,2.1-4.5,4.6-4.5h171.8c2.5,0,4.5,2,4.5,4.5L228.3,280L228.3,280z M300,275.5l-57.7-29.1v-59l57.7-29V275.5z"/>
	</g>
</g>
</svg>
