<?xml version="1.0" encoding="utf-8"?>
<!-- Generator: Adobe Illustrator 20.1.0, SVG Export Plug-In . SVG Version: 6.00 Build 0)  -->
<svg version="1.1" id="Слой_1" xmlns="http://www.w3.org/2000/svg" xmlns:xlink="https://www.w3.org/1999/xlink" x="0px" y="0px"
	 viewBox="0 0 331.5 334.9" style="enable-background:new 0 0 331.5 334.9;" xml:space="preserve">
<style type="text/css">
	.st0{fill:#FFFFFF;}
</style>
<title>wallet</title>
<g id="Layer_2">
	<g id="Capa_1">
		<path class="st0" d="M331.5,156h-16.1V82.1c0-17.7-14.4-32.1-32.1-32.1h-21.8l-22.3-40c-5.2-9.3-16.9-12.7-26.2-7.5c0,0,0,0,0,0
			L127.6,50H32.1C14.4,50,0,64.4,0,82.1v220.6c0,17.7,14.4,32.1,32.1,32.1h251.2c17.7,0,32.1-14.4,32.1-32.1v-64.8h16.1L331.5,156
			L331.5,156z M283.3,62.8c9.8,0,18,7.4,19.1,17.1h-24.2l-9.5-17.1L283.3,62.8z M219.3,13.7c3.1-1.6,6.9-0.5,8.7,2.5l35.5,63.8
			H100.1L219.3,13.7z M302.6,302.7c0,10.6-8.7,19.3-19.3,19.3H32.1c-10.6,0-19.3-8.6-19.3-19.3V82.1c0-10.6,8.6-19.3,19.3-19.3h72.3
			L73.7,79.9H36.2c-3.5,0.1-6.3,3.1-6.2,6.7c0.1,3.4,2.8,6,6.2,6.2h266.4V156h-47c-21.9,0-39.6,17.7-39.6,39.6v2.8
			c0,21.9,17.7,39.6,39.6,39.6h47L302.6,302.7L302.6,302.7z M318.7,225.1h-63.1c-14.8,0-26.7-12-26.7-26.7v-2.8
			c0-14.8,12-26.7,26.7-26.7h63.1L318.7,225.1z M275.3,197.5c0,7.8-6.4,14.2-14.2,14.2s-14.2-6.4-14.2-14.2
			c0-7.8,6.4-14.2,14.2-14.2S275.3,189.7,275.3,197.5L275.3,197.5z"/>
	</g>
</g>
</svg>
