<svg xmlns="http://www.w3.org/2000/svg" viewBox="0 0 215.83 205.05"><defs><style>.cls-1{fill:none;stroke:#a10644;stroke-linecap:round;stroke-linejoin:round;stroke-width:4px;}</style></defs><title>ic-1</title>
    <g id="Layer_2" data-name="Layer 2">
        <g id="Layer_1-2" data-name="Layer 1">
            <path fill="#d2d2d3" d="M214.61,109.51a5.68,5.68,0,0,0-4.5-2.19h-2.28a18.13,18.13,0,0,0-10.76,3.56l1.56-6.12A20.57,20.57,0,0,0,178.7,79.08H37.13a20.58,20.58,0,0,0-19.94,25.67l1.57,6.12A18.13,18.13,0,0,0,8,107.31H5.72A5.72,5.72,0,0,0,.17,114.4l14.9,60.36a11,11,0,0,0,7.48,7.91l-3.12,20a2.1,2.1,0,0,0,2.08,2.43h7a2.1,2.1,0,0,0,1.87-1.14L41,183.18H174.79l10.65,20.73a2.1,2.1,0,0,0,1.87,1.14h7a2.1,2.1,0,0,0,2.08-2.43l-3.12-20a11,11,0,0,0,7.48-7.91l14.9-60.36A5.69,5.69,0,0,0,214.61,109.51ZM24.2,89.62a16.27,16.27,0,0,1,12.93-6.33H178.7a16.37,16.37,0,0,1,15.86,20.42l-4.22,16.52-2.26,8.85L184,144.5H31.82l-4-15.13s0,0,0,0c-.08-.29-2.07-8.1-4.45-17.39l-2.11-8.25A16.26,16.26,0,0,1,24.2,89.62Zm158.7,59.09-1.64,6.22a6.88,6.88,0,0,1-6.64,5.12H41.21a6.88,6.88,0,0,1-6.64-5.12l-1.64-6.22ZM27.23,200.85H24l2.77-17.66h9.58Zm161.36,0-9.08-17.66h9.58l2.76,17.66Zm8.08-27.09A6.85,6.85,0,0,1,190,179H25.82a6.86,6.86,0,0,1-6.67-5.23L4.25,113.39a1.51,1.51,0,0,1,1.47-1.87H8a14,14,0,0,1,13.52,10.42l9,34.07a11.09,11.09,0,0,0,10.71,8.25h133.4A11.09,11.09,0,0,0,185.33,156l6.74-25.57h0l.12-.47,2.11-8a14,14,0,0,1,13.52-10.42h2.28a1.51,1.51,0,0,1,1.47,1.87Z"/>
            <rect  fill="#d2d2d3" x="105.91" y="80.74" width="4" height="65"/>
            <path class="cls-1" d="M119.74,2a11.83,11.83,0,0,0-11.83,11.83,11.83,11.83,0,1,0-23.65,0c0,16.2,23.65,28.58,23.65,28.58S131.57,30,131.57,13.83A11.83,11.83,0,0,0,119.74,2Z"/>
            <path class="cls-1" d="M173.41,43.33a6.52,6.52,0,0,0-9.22,0A6.52,6.52,0,1,0,155,34.11c-6.31,6.31-1.92,20.36-1.92,20.36s14,4.39,20.36-1.92A6.52,6.52,0,0,0,173.41,43.33Z"/></g></g></svg>