<svg xmlns="http://www.w3.org/2000/svg" xmlns:xlink="https://www.w3.org/1999/xlink" width="64" height="80"><rect id="backgroundrect" width="100%" height="100%" x="0" y="0" fill="none" stroke="none" class="" style=""/>
    
<g class="currentLayer" style=""><title>Layer 1</title><path fill-rule="evenodd" opacity="0.8" fill="rgb(255, 255, 255)" d="M63.24900000214577,79.67499998664856 C63.04600000214577,79.81399998664855 62.78100000214577,79.84499998664856 62.55400000214577,79.75599998664856 L41.60300000214577,71.65799998664856 L21.577000002145766,79.73899998664857 L21.520000002145768,79.75799998664856 C21.490000002145766,79.76899998664857 21.458000002145766,79.77799998664855 21.434000002145766,79.78299998664856 L21.391000002145766,79.79399998664856 C21.293000002145767,79.81099998664855 21.244000002145768,79.81299998664856 21.130000002145767,79.79199998664856 L21.098000002145767,79.78399998664855 C21.067000002145768,79.77699998664856 21.03800000214577,79.76899998664857 21.01200000214577,79.75899998664856 C20.99200000214577,79.75199998664856 20.971000002145768,79.74499998664857 20.95100000214577,79.73999998664856 L0.4720000021457673,71.54799998664856 C0.18600000214576728,71.43299998664855 2.1457672305658093e-9,71.15999998664856 2.1457672305658093e-9,70.85099998664856 L2.1457672305658093e-9,37.49499998664856 C2.1457672305658093e-9,37.245999986648556 0.12300000214576723,37.01399998664856 0.33000000214576725,36.873999986648556 C0.5370000021457674,36.73399998664856 0.7990000021457673,36.70599998664856 1.0290000021457673,36.79799998664856 L21.363000002145768,44.93199998664856 L14.113000002145768,34.53599998664856 C11.532000002145768,30.83599998664856 10.167000002145768,26.49299998664856 10.167000002145768,21.97699998664856 C10.167000002145768,9.85899998664856 20.026000002145768,-1.3351440286690774e-8 32.144000002145766,-1.3351440286690774e-8 C44.263000002145766,-1.3351440286690774e-8 54.12100000214577,9.85899998664856 54.12100000214577,21.97699998664856 C54.12100000214577,26.49399998664856 52.757000002145766,30.83699998664856 50.175000002145765,34.53599998664856 L47.17000000214577,38.84499998664856 L63.09500000214577,44.99999998664856 C63.382000002145766,45.11099998664856 63.57500000214577,45.39299998664856 63.57500000214577,45.70099998664856 L63.57500000214577,79.05599998664856 C63.57500000214577,79.30399998664856 63.453000002145764,79.53499998664856 63.24900000214577,79.67499998664856 zM20.513000002145766,46.20899998664856 L1.5020000021457673,38.60399998664856 L1.5020000021457673,70.34299998664856 L20.513000002145766,77.94699998664856 L20.513000002145766,46.20899998664856 zM22.014000002145767,77.94399998664856 L40.84700000214577,70.34399998664856 L40.84700000214577,47.91199998664856 L32.760000002145766,59.50799998664856 C32.620000002145765,59.70899998664856 32.389000002145764,59.82899998664856 32.144000002145766,59.82899998664856 C31.89900000214577,59.82899998664856 31.66900000214577,59.70899998664856 31.529000002145768,59.50799998664856 L22.014000002145767,45.86499998664856 L22.014000002145767,77.94399998664856 zM48.94400000214577,33.67699998664856 C51.349000002145765,30.22999998664856 52.620000002145765,26.18499998664856 52.620000002145765,21.97699998664856 C52.620000002145765,10.68699998664856 43.43500000214577,1.5019999866485598 32.144000002145766,1.5019999866485598 C20.854000002145767,1.5019999866485598 11.669000002145767,10.68699998664856 11.669000002145767,21.97699998664856 C11.669000002145767,26.18499998664856 12.940000002145768,30.22999998664856 15.344000002145767,33.67699998664856 L32.144000002145766,57.76599998664856 L48.94400000214577,33.67699998664856 zM62.074000002145766,46.21499998664856 L46.28600000214577,40.11199998664856 L42.349000002145765,45.75899998664856 L42.349000002145765,70.33599998664856 L62.074000002145766,77.96099998664856 L62.074000002145766,46.21499998664856 zM21.405000002145766,21.97699998664856 C21.405000002145766,16.05499998664856 26.223000002145767,11.23799998664856 32.144000002145766,11.23799998664856 C38.06600000214577,11.23799998664856 42.88400000214577,16.05499998664856 42.88400000214577,21.97699998664856 C42.88400000214577,27.89799998664856 38.06600000214577,32.71599998664856 32.144000002145766,32.71599998664856 C26.223000002145767,32.71599998664856 21.405000002145766,27.89799998664856 21.405000002145766,21.97699998664856 zM41.382000002145766,21.97699998664856 C41.382000002145766,16.88299998664856 37.23800000214577,12.73899998664856 32.144000002145766,12.73899998664856 C27.05000000214577,12.73899998664856 22.906000002145767,16.88299998664856 22.906000002145767,21.97699998664856 C22.906000002145767,27.07099998664856 27.05000000214577,31.21499998664856 32.144000002145766,31.21499998664856 C37.23800000214577,31.21499998664856 41.382000002145766,27.07099998664856 41.382000002145766,21.97699998664856 z" id="svg_1" class=""/></g></svg>