<?xml version="1.0" encoding="utf-8"?>
<!-- Generator: Adobe Illustrator 21.1.0, SVG Export Plug-In . SVG Version: 6.00 Build 0)  -->
<svg version="1.1" id="Слой_1" xmlns="http://www.w3.org/2000/svg" xmlns:xlink="https://www.w3.org/1999/xlink" x="0px" y="0px"
	 viewBox="0 0 73 100" style="enable-background:new 0 0 73 100;" xml:space="preserve">
<style type="text/css">
	.st0{fill:#D4D3D5;}
	.st1{fill:#FFFFFF;}
</style>
<g>
	<path class="st1" d="M43,19.4c0.8,0,1.5-0.7,1.5-1.5c0-3.9-3.2-7.1-7.1-7.1c-1.2,0-2.5,0.3-3.5,0.9l-0.3,0.1l-0.2-0.2
		c-1.1-1-2.5-1.5-4-1.5c-3.4,0-6.2,2.8-6.2,6.2c0,3.4,2.8,6.2,6.2,6.2c0.8,0,1.5-0.7,1.5-1.5c0-0.8-0.7-1.5-1.5-1.5
		c-1.7,0-3.1-1.4-3.1-3.1c0-1.7,1.4-3.1,3.1-3.1c1.1,0,2.1,0.6,2.7,1.5c0.2,0.4,0.7,0.7,1.1,0.7c0.5,0.1,0.9-0.1,1.3-0.5
		c0.8-0.8,1.8-1.2,2.9-1.2c2.2,0,4,1.8,4,4C41.5,18.8,42.2,19.4,43,19.4z"/>
	<path class="st1" d="M14.7,50.1c4,6.2,13.3,8.2,22.3,10.1l0.4,0.1c8.7,1.8,17.8,3.7,21.8,9.2c0.6,0.9,1.1,1.7,1.5,2.6
		c0.1,0.2,0.3,0.3,0.5,0.3c0.3,0,0.5-0.2,0.5-0.4c0.2-1.1,0.2-2.1,0.1-3.1c-0.3-5-4.6-9.6-10.6-11.1c-5.2-1.3-10.9-2-15.8-2.6
		L34.9,55c-3.9-0.5-7.3-0.9-9.8-1.6l-0.4-0.1l0,0c-0.9-0.2-1.7-0.5-2.4-0.8c-2.9-1.1-5-2.7-6.3-4.5c-1.3-2-1.5-4.5-0.5-7.2
		c0.1-0.1,0.1-0.2,0.1-0.3c0.1-0.2-0.1-0.5-0.3-0.6c-0.2-0.1-0.5,0-0.6,0.2c-0.9,1.6-1.3,3.2-1.3,5.3c0,0.2,0,0.4,0,0.7
		c0.2,1.3,0.4,2.1,0.9,3.3l0.1,0.1L14.7,50.1z"/>
	<path class="st1" d="M72.9,21.6c0-3.9-2.5-7.3-6.2-8.5L66.3,13l0.1-0.5c0-0.3,0-0.5,0-0.8c0-3.9-3.1-7-7-7c-1.1,0-2.2,0.3-3.2,0.8
		l-0.5,0.2l-0.3-0.4c-1.6-2.5-4.4-4-7.4-4c-1.9,0-3.7,0.6-5.2,1.7l-0.5,0.3l-0.3-0.5C40.6,1.1,38.5,0,36.3,0c-2.1,0-4.1,1-5.5,2.6
		l-0.3,0.4L30,2.8c-1.5-1-3.2-1.5-5-1.5c-3,0-5.8,1.5-7.4,4.1l-0.3,0.4l-0.5-0.2c-1-0.5-2.1-0.8-3.2-0.8c-3.9,0-7,3.1-7,7
		c0,0.3,0,0.5,0,0.8L6.8,13l-0.5,0.1c-3.7,1.1-6.2,4.5-6.2,8.5c0,2,0.7,3.9,1.9,5.5l0.1,0.1l0,0.1l7.8,71.6c0.1,0.6,0.6,1,1.1,1
		l1.5,0.1c1.4,0.1,2.8,0.2,4.2,0.2l0.6,0c1.1,0,2.4-0.1,3.7-0.2l41.1,0c0.6,0,1.1-0.4,1.2-1l6.6-60.9l1.3-10.5c0,0,0-0.1,0-0.1
		L71,27l0.1-0.2C72.3,25.3,72.9,23.4,72.9,21.6z M21.1,94.3c-0.4-0.1-0.7-0.2-0.9-0.2c-2.3-0.6-4-1.2-6.2-2.4l-1.5-1
		c-0.4-0.3-0.8-0.7-1.3-1.1l-0.1-0.1L8.7,66.5L9.4,67c2.1,1.4,4.7,2.8,8.2,4c2.5,0.9,5.2,1.8,7.8,2.5c2.3,0.7,4.4,1.3,6.4,2.1
		c7.9,2.8,12.1,7.7,10.8,12.4c-1.1,3.8-6.1,7-14.1,7C26.3,95.1,23.8,94.8,21.1,94.3z M67.3,39.1L61,97.5H32.2l2-0.8
		c2.1-0.8,4-1.8,5.7-2.8c7.9-4.8,11.8-9.5,11.5-13.7c-0.3-4.3-4.8-7.8-13.4-10.3c-3.2-1-6.7-1.7-10.1-2.4c-2.8-0.6-5.7-1.2-8.4-1.9
		c-5.3-1.5-9-3.3-11.5-5.7l-0.1-0.1L4.5,27.9h28l-1.3,0.8c-2.3,1.4-3.8,3.2-4.6,5.5c-1,2.9-0.8,5.4,0.7,7.6c1.3,1.9,3.4,3.5,6.4,4.6
		c1,0.4,1.9,0.7,2.9,0.9c2.5,0.7,5.9,1.1,9.9,1.6l0.4,0.1c2.4,0.3,5.1,0.7,7.8,1.1c1,0.2,1.9,0.4,2.9,0.5l1.8,0.4
		c0.5,0.1,0.9,0.2,1.4,0.3c0.3,0.1,0.5-0.1,0.6-0.4c0.1-0.3-0.1-0.5-0.3-0.6c-3.2-1.1-6.6-1.9-9.2-2.5c-0.9-0.2-1.7-0.4-2.5-0.6
		c-2-0.4-4-0.9-5.6-1.3c-7.8-2.1-10.6-5.9-10-8.7c1-4.3,9.2-7.5,22.4-5c5.8,1.3,9.4,3.5,11.2,6.7l0.1,0.1L67.3,39.1z M69.4,25.3
		l-0.1,0.2L69,25.6H3.8l-0.1-0.2c-0.8-1.2-1.3-2.5-1.3-3.9c0-2.9,2-5.5,4.8-6.3l0.4-0.1l0.2,0.3c0.6,0.8,2.3,2.8,5.2,2.4
		c0.6-0.1,1.1-0.6,1.1-1.2c0-0.3-0.2-0.6-0.4-0.9c-0.3-0.2-0.6-0.3-0.9-0.3c-1.9,0.2-3.1-1-3.5-2.1c-0.2-0.4-0.3-0.8-0.3-1.2
		C8.9,11,9.3,9.7,10.1,8.7c0.8-1,2-1.6,3.2-1.7C14.7,6.9,16,7.4,17,8.4c0.2,0.2,0.5,0.4,0.8,0.4c0.5,0,0.9-0.3,1.1-0.8
		c0.9-2.6,3.4-4.4,6.2-4.4c1.9,0,3.6,0.8,4.9,2.2c0.2,0.2,0.5,0.4,0.8,0.4c0.5,0,1-0.3,1.2-0.8c0.7-1.8,2.4-3.1,4.4-3.1
		c2,0,3.9,1.4,4.5,3.3c0.1,0.4,0.3,0.6,0.6,0.8c0.5,0.2,1.1,0.1,1.4-0.3c1.2-1.6,3.1-2.5,5.2-2.5c2.5,0,4.7,1.4,5.8,3.5l0.1,0.2
		l-0.1,0.3c-0.4,0.7-0.7,1.3-0.9,1.9c-0.6,2.2,0.1,4.4,1.9,6.2c0.4,0.4,1.2,0.4,1.6,0c0.2-0.2,0.3-0.5,0.3-0.8
		c0-0.3-0.1-0.7-0.4-0.9c-1.1-1.2-1.6-2.4-1.2-3.7c0-0.1,0.1-0.3,0.1-0.4c0.4-1.1,1.2-2,2.3-2.5C58.2,7.1,59,7,59.9,7
		c2.3,0.2,4.2,2.3,4.2,4.6c0,0.6-0.1,1.2-0.3,1.8c-0.1,0.3-0.1,0.6,0,0.8c0.1,0.4,0.5,0.8,1,0.8c3.3,0.3,6,3.2,6,6.5
		C70.6,22.9,70.2,24.2,69.4,25.3z"/>
</g>
</svg>
