<?xml version="1.0" encoding="utf-8"?>
<!-- Generator: Adobe Illustrator 21.1.0, SVG Export Plug-In . SVG Version: 6.00 Build 0)  -->
<svg version="1.1" id="Слой_1" xmlns="http://www.w3.org/2000/svg" xmlns:xlink="https://www.w3.org/1999/xlink" x="0px" y="0px"
	 viewBox="0 0 100 100" style="enable-background:new 0 0 100 100;" xml:space="preserve">
<style type="text/css">
	.st0{fill:#D4D3D5;}
	.st1{fill:#FFFFFF;}
</style>
<g>
	<path class="st1" d="M77,25.9c0.7,0,1.2-0.5,1.2-1.2s-0.5-1.2-1.2-1.2c-0.7,0-1.2,0.5-1.2,1.2S76.3,25.9,77,25.9z"/>
	<path class="st1" d="M71.9,10.8c0.7,0,1.2-0.5,1.2-1.2s-0.5-1.2-1.2-1.2c-0.7,0-1.2,0.5-1.2,1.2S71.3,10.8,71.9,10.8z"/>
	<path class="st1" d="M77,15.8c0.7,0,1.2-0.5,1.2-1.2s-0.5-1.2-1.2-1.2c-0.7,0-1.2,0.5-1.2,1.2S76.3,15.8,77,15.8z"/>
	<path class="st1" d="M98.8,97.6h-3.4c-0.7,0-1.2,0.5-1.2,1.2c0,0.7,0.5,1.2,1.2,1.2h3.4c0.7,0,1.2-0.5,1.2-1.2S99.5,97.6,98.8,97.6
		z"/>
	<path class="st1" d="M71.9,20.9c0.7,0,1.2-0.5,1.2-1.2s-0.5-1.2-1.2-1.2c-0.7,0-1.2,0.5-1.2,1.2S71.3,20.9,71.9,20.9z"/>
	<path class="st1" d="M71.9,31c0.7,0,1.2-0.5,1.2-1.2s-0.5-1.2-1.2-1.2c-0.7,0-1.2,0.5-1.2,1.2S71.3,31,71.9,31z"/>
	<path class="st1" d="M66.9,13.5L66.9,13.5c-0.7,0-1.2,0.5-1.2,1.2s0.5,1.2,1.2,1.2c0.7,0,1.2-0.5,1.2-1.2S67.5,13.5,66.9,13.5z"/>
	<path class="st1" d="M23.1,20.2L23.1,20.2c-0.7,0-1.2,0.5-1.2,1.2s0.5,1.2,1.2,1.2c0.7,0,1.2-0.5,1.2-1.2S23.8,20.2,23.1,20.2z"/>
	<path class="st1" d="M66.9,23.6L66.9,23.6c-0.7,0-1.2,0.5-1.2,1.2s0.5,1.2,1.2,1.2c0.7,0,1.2-0.5,1.2-1.2S67.5,23.6,66.9,23.6z"/>
	<path class="st1" d="M33.2,32.7c0.7,0,1.2-0.5,1.2-1.2s-0.5-1.2-1.2-1.2c-0.7,0-1.2,0.5-1.2,1.2S32.6,32.7,33.2,32.7z"/>
	<path class="st1" d="M33.2,22.6c0.7,0,1.2-0.5,1.2-1.2s-0.5-1.2-1.2-1.2c-0.7,0-1.2,0.5-1.2,1.2S32.6,22.6,33.2,22.6z"/>
	<path class="st1" d="M88.7,97.6H73.1V76.9L73,76.4l0.5-0.1c7.4-0.8,13-7.1,13-14.6V44.9c0-9.4,3-21.9,3.3-23.3
		c0.1-0.5-0.1-1.1-0.6-1.3c-0.5-0.3-1.1-0.2-1.4,0.2c-0.1,0.1-1.6,1.7-3.8,4.4l-0.9,1.1v-6.4C83.2,7.9,76.4,0,71.9,0
		c-4.5,0-11.3,7.9-11.3,19.7v4.9l-0.8-0.8c-2.2-2.1-4-3.3-4-3.4c-0.4-0.3-0.9-0.3-1.3,0c-0.4,0.3-0.6,0.8-0.5,1.3
		c0.3,1.4,3.3,13.9,3.3,23.3v16.8c0,7.5,5.6,13.7,13,14.6l0.5,0.1L70.7,77l0,20.6H29.3l0-14.5l0.5-0.1c7.4-0.8,13-7.1,13-14.6V51.7
		c0-9.7,3.2-22.7,3.3-23.3c0.1-0.5-0.1-1.1-0.6-1.3c-0.5-0.3-1.1-0.2-1.4,0.2c-0.1,0.1-1.6,1.7-3.8,4.4l-0.9,1.1v-6.4
		c0-11.8-6.8-19.7-11.3-19.7c-4.5,0-11.3,7.9-11.3,19.7v4.9L16,30.5c-2.3-2.2-4-3.3-4-3.4c-0.2-0.1-0.4-0.2-0.7-0.2
		c-0.2,0-0.5,0.1-0.7,0.2c-0.4,0.3-0.6,0.8-0.5,1.3c0.3,1.4,3.3,13.9,3.3,23.3v16.8c0,7.5,5.6,13.7,13,14.6l0.5,0.1l-0.1,0.6l0,15.1
		c0,0.7,0.5,1.2,1.2,1.2h60.6c0.7,0,1.2-0.5,1.2-1.2C89.9,98.2,89.4,97.6,88.7,97.6z M28.1,80.8c-6.8,0-12.3-5.5-12.3-12.3V51.7
		c0-6.3-1.3-13.8-2.3-19l-0.3-1.6l1.2,1.1c3.2,3,7.4,8.1,9.3,14.7c0.1,0.3,0.3,0.6,0.6,0.7c0.3,0.2,0.6,0.2,0.9,0.1
		c0.3-0.1,0.6-0.3,0.7-0.6c0.2-0.3,0.2-0.6,0.1-0.9c-1.2-4.3-3.4-8.4-6.6-12.2l-0.1-0.1v-7.5c0-11.3,6.3-17.3,8.9-17.3
		c2.6,0,8.9,6.1,8.9,17.3v9.5l-0.1,0.1c-6.3,8.4-14,20.9-15,32.3c0,0.3,0.1,0.6,0.3,0.9c0.2,0.2,0.5,0.4,0.8,0.4
		c0.6,0,1.2-0.4,1.3-1.1C25.4,56,35.5,41.6,41.5,34.1l1.3-1.6l-0.4,2c-0.9,4.7-2,11.4-2,17.2v16.8C40.4,75.3,34.9,80.8,28.1,80.8z
		 M59.6,61.8V44.9c0-6.3-1.3-13.8-2.3-19L57,24.4l1.2,1.1c3.2,3,7.4,8.1,9.3,14.7c0.1,0.3,0.3,0.6,0.6,0.7c0.3,0.2,0.6,0.2,0.9,0.1
		c0.3-0.1,0.6-0.3,0.7-0.6c0.2-0.3,0.2-0.6,0.1-0.9c-1.2-4.3-3.4-8.4-6.6-12.2L63,27.2v-7.5c0-11.3,6.3-17.3,8.9-17.3
		c2.6,0,8.9,6.1,8.9,17.3v9.5l-0.1,0.1c-6.3,8.4-14,20.9-15,32.3c0,0.3,0.1,0.6,0.3,0.9c0.2,0.2,0.5,0.4,0.8,0.4
		c0.6,0.1,1.2-0.4,1.3-1.1c1.1-12.6,11.3-27.1,17.2-34.5l1.3-1.6l-0.4,2c-0.9,4.7-2,11.4-2,17.2v16.8c0,6.8-5.5,12.3-12.3,12.3
		C65.1,74.1,59.6,68.6,59.6,61.8z"/>
	<path class="st1" d="M21.4,97.6H1.2c-0.7,0-1.2,0.5-1.2,1.2c0,0.7,0.5,1.2,1.2,1.2h20.2c0.7,0,1.2-0.5,1.2-1.2S22,97.6,21.4,97.6z"
		/>
	<path class="st1" d="M28.2,17.5c0.7,0,1.2-0.5,1.2-1.2s-0.5-1.2-1.2-1.2c-0.7,0-1.2,0.5-1.2,1.2S27.5,17.5,28.2,17.5z"/>
	<path class="st1" d="M23.1,30.3L23.1,30.3c-0.7,0-1.2,0.5-1.2,1.2s0.5,1.2,1.2,1.2c0.7,0,1.2-0.5,1.2-1.2S23.8,30.3,23.1,30.3z"/>
	<path class="st1" d="M28.2,37.7c0.7,0,1.2-0.5,1.2-1.2s-0.5-1.2-1.2-1.2c-0.7,0-1.2,0.5-1.2,1.2S27.5,37.7,28.2,37.7z"/>
	<path class="st1" d="M28.2,27.6c0.7,0,1.2-0.5,1.2-1.2s-0.5-1.2-1.2-1.2c-0.7,0-1.2,0.5-1.2,1.2S27.5,27.6,28.2,27.6z"/>
</g>
</svg>
