<?xml version="1.0" encoding="utf-8"?>
<!-- Generator: Adobe Illustrator 21.1.0, SVG Export Plug-In . SVG Version: 6.00 Build 0)  -->
<svg version="1.1" id="Слой_1" xmlns="http://www.w3.org/2000/svg" xmlns:xlink="https://www.w3.org/1999/xlink" x="0px" y="0px"
	 viewBox="0 0 100 100" style="enable-background:new 0 0 100 100;" xml:space="preserve">
<style type="text/css">
	.st0{fill:#D4D3D5;}
	.st1{fill:#FFFFFF;}
</style>
<g>
	<path class="st1" d="M100,16.9V1.2c0-0.7-0.5-1.2-1.2-1.2H1.2C0.5,0,0,0.5,0,1.2v15.7c0,0.1,0,0.3,0.1,0.4c1.4,4.1,5,7,9.3,7.6
		L9.8,25v24.9H7c-0.7,0-1.2,0.5-1.2,1.2v29.2c0,0.7,0.5,1.2,1.2,1.2h3.7l0,0.4C11.5,92,20.2,100,30.5,100c11,0,19.9-8.9,19.9-19.9
		s-8.9-19.9-19.9-19.9c-10.3,0-19,8-19.8,18.3l0,0.4H8.2V52.2h74.1V79H55.6c-0.7,0-1.2,0.5-1.2,1.2s0.5,1.2,1.2,1.2h12.8v17.5
		c0,0.7,0.5,1.2,1.2,1.2s1.2-0.5,1.2-1.2V81.3h12.8c0.7,0,1.2-0.5,1.2-1.2v-28H93c0.7,0,1.2-0.5,1.2-1.2s-0.5-1.2-1.2-1.2H76.1
		L77,38.7c0-0.3-0.1-0.6-0.3-0.9l-0.1-0.1l0.4-5.6c0-0.3-0.1-0.7-0.3-0.9c-0.2-0.2-0.5-0.4-0.9-0.4H63.3c-0.3,0-0.6,0.1-0.9,0.4
		c-0.2,0.2-0.3,0.6-0.3,0.9l0.4,5.6l-0.1,0.1c-0.2,0.2-0.3,0.6-0.3,0.9l0.9,11.2H51.2V25l0.4-0.1c3.2-0.4,6-2.2,7.9-4.8l0.3-0.5
		l0.3,0.5c2.2,3,5.7,4.9,9.4,4.9c3.7,0,7.3-1.8,9.4-4.9l0.3-0.5l0.3,0.5c2.2,3,5.7,4.9,9.4,4.9c4.9,0,9.2-3.1,10.9-7.7
		C100,17.2,100,17.1,100,16.9z M30.5,62.6c9.7,0,17.5,7.9,17.5,17.5s-7.9,17.5-17.5,17.5c-9.7,0-17.5-7.9-17.5-17.5
		S20.8,62.6,30.5,62.6z M74.5,33.2l-0.3,4.2h-9.4l-0.3-4.2H74.5z M74.5,39.7l-0.8,10.1h-8.4l-0.8-10.1H74.5z M21.9,2.4h17.2l0,14.4
		c-1.4,3.5-4.8,5.9-8.6,5.9c-3.8,0-7.2-2.4-8.6-5.9l0-0.2V2.4z M2.4,16.8l0-0.2V2.4h17.2l0,14.4c-1.4,3.5-4.8,5.9-8.6,5.9
		C7.2,22.6,3.8,20.3,2.4,16.8z M48.8,49.8H12.1V25l0.4-0.1c3.2-0.4,6-2.2,7.9-4.8l0.3-0.5l0.3,0.5c2.2,3,5.7,4.9,9.4,4.9
		c3.7,0,7.2-1.8,9.4-4.9l0.3-0.5l0.3,0.5c1.8,2.6,4.7,4.3,7.9,4.8l0.4,0.1V49.8z M58.6,16.8c-1.4,3.5-4.8,5.9-8.6,5.9
		c-3.8,0-7.2-2.4-8.6-5.9l0-0.2V2.4h17.2L58.6,16.8z M78.1,16.8c-1.4,3.5-4.8,5.9-8.6,5.9c-3.8,0-7.2-2.4-8.6-5.9l0-0.2V2.4h17.2
		L78.1,16.8z M97.6,16.8c-1.4,3.5-4.8,5.9-8.6,5.9c-3.8,0-7.2-2.4-8.6-5.9l0-0.2V2.4h17.2L97.6,16.8z"/>
	<path class="st1" d="M30.5,70.3c-5.4,0-9.8,4.4-9.8,9.8c0,5.4,4.4,9.8,9.8,9.8s9.8-4.4,9.8-9.8C40.3,74.7,35.9,70.3,30.5,70.3z
		 M30.5,87.6c-4.1,0-7.5-3.3-7.5-7.5c0-4.1,3.3-7.5,7.5-7.5c4.1,0,7.5,3.3,7.5,7.5C37.9,84.2,34.6,87.6,30.5,87.6z"/>
	<path class="st1" d="M43.6,45.7c0.7,0,1.2-0.5,1.2-1.2v-3.7c0-1.9-1.4-3.7-3.3-4.1l-0.2,0l-0.1-0.2c-1.1-2-3.3-3.2-5.5-3l-0.3,0
		l-0.1-0.2c-1-1.6-2.8-2.6-4.7-2.6s-3.7,1-4.7,2.6l-0.1,0.2l-0.3,0c-2.2-0.3-4.5,1-5.5,3l-0.1,0.2l-0.2,0c-1.9,0.4-3.3,2.1-3.3,4.1
		v3.7c0,0.7,0.5,1.2,1.2,1.2s1.2-0.5,1.2-1.2v-3.7c0-1,0.8-1.8,1.8-1.8l0.1,0c0.6,0,1-0.3,1.2-0.8c0.5-1.7,2.5-2.7,4.2-2.1
		c0.3,0.1,0.6,0.1,0.9,0c0.3-0.1,0.5-0.4,0.6-0.7c0.4-1.3,1.7-2.3,3.1-2.3s2.6,0.9,3.1,2.3c0.1,0.3,0.3,0.6,0.6,0.7
		c0.3,0.1,0.6,0.2,0.9,0c1.7-0.7,3.7,0.4,4.2,2.1c0.2,0.5,0.7,0.9,1.2,0.8c0,0,0.1,0,0.1,0c0.5,0,0.9,0.2,1.2,0.5
		c0.4,0.3,0.6,0.8,0.6,1.3v3.7C42.4,45.2,42.9,45.7,43.6,45.7z"/>
</g>
</svg>
