<svg xmlns="http://www.w3.org/2000/svg" viewBox="0 0 262.42 127.69">
    <title>ic-3</title>
    <defs>
    <style>
        .fill-white {fill: #d2d2d3; }
        .white { stroke: #d2d2d3;}
        .fill-colored{fill: #43bad4; }
        .colored{ stroke: #43bad4;}
    </style>
    </defs>
    <g id="Layer_2" data-name="Layer 2">
        <g id="Layer_1-2" data-name="Layer 1">
            <path class="fill-white" d="M45.14,59.46v29a2.1,2.1,0,0,0,2.1,2.1H215.18a2.1,2.1,0,0,0,2.1-2.1v-29h-3.53v-7a18.5,18.5,0,0,0-.68,5V67.62H49.35V59.46ZM213.07,71.83V86.34H49.35V71.83Z"/>
            <path class="fill-white" d="M36.83,21.15A17,17,0,0,1,53.77,4.21H208.66a17,17,0,0,1,16.94,16.94V40.46H238a15.83,15.83,0,0,0-3.77-.46,33.84,33.84,0,0,0-4.41.29V21.15A21.17,21.17,0,0,0,208.66,0H53.77A21.17,21.17,0,0,0,32.62,21.15V40.29A33.79,33.79,0,0,0,28.21,40a15.88,15.88,0,0,0-4.24.59H36.83Z"/>
            <path class="fill-white" d="M248.28,59.46a13.19,13.19,0,0,1-.44,3.64c-2.28,8.32-11.7,8.21-12,8.21a2.07,2.07,0,0,0-1.52.6,2.09,2.09,0,0,0-.64,1.5v24.4a7.27,7.27,0,0,1-7.26,7.26H36a7.27,7.27,0,0,1-7.26-7.26V73.41a2.11,2.11,0,0,0-2.11-2.1h0c-.37,0-9.76.1-12-8.21a13.21,13.21,0,0,1-.44-3.64H10.08V57.22a17.74,17.74,0,0,0,.44,7c2.17,7.92,9.24,10.66,14,11.2v22.4a11.47,11.47,0,0,0,9.36,11.25v16.53a2.1,2.1,0,0,0,2.1,2.1h9.24a2.1,2.1,0,0,0,2-1.61l4-16.8H211.06l4,16.8a2.1,2.1,0,0,0,2,1.61h9.25a2.1,2.1,0,0,0,2.1-2.1V109.06a11.47,11.47,0,0,0,9.36-11.25V75.41c4.8-.54,11.87-3.29,14-11.2a17.35,17.35,0,0,0,.6-4.75Zm-204.65,64H38.14V109.27H47Zm180.65,0H218.8l-3.41-14.21h8.89Z"/>
            <path class="fill-colored" d="M157.74,49l-48-49h96.56ZM119.5,4.21l38.26,39.07L196.53,4.21Z"/>
            <rect class="fill-white" x="248.29" y="41.43" width="4.2" height="18.34"/>
            <rect class="fill-white" x="9.93" y="41.43" width="4.2" height="18.34"/>
            <polygon  class="fill-colored" points="49.35 67.5 45.15 67.5 45.15 43.97 0 43.97 0 39.77 49.35 39.77 49.35 67.5"/>
            <polygon  class="fill-colored"
                    points="213.07 67.57 217.27 67.57 217.27 44.04 262.42 44.04 262.42 39.84 213.07 39.84 213.07 67.57"/>
        </g>
    </g>
</svg>