<svg xmlns="http://www.w3.org/2000/svg" viewBox="0 0 144.91 129.33">
    <defs>
        <style>

            .cls-1{fill:none;stroke-linecap:round;stroke-linejoin:round;stroke-width:4px;}
            .cls-2{stroke-miterlimit:10;}
            .fill-white {fill: #d2d2d3; }
            .white { stroke: #d2d2d3;}
            .fill-colored{fill: #a6b43a; }
            .colored{ stroke: #a6b43a;}
        </style>
    </defs>
    <title>ic-2</title>
    <g id="Layer_2" data-name="Layer 2">
        <g id="Isolation_Mode" data-name="Isolation Mode">
            <line class="cls-1 colored" x1="109.66" y1="55" x2="142.91" y2="55"/>
            <line class="cls-1 colored" x1="2" y1="55" x2="35.25" y2="55"/>
            <path class="fill-white"
                  d="M39.88,118.17l-3.31,6.45h-3l1-6.45H30.31L29,126.4a2.1,2.1,0,0,0,2.08,2.43h6.76a2.1,2.1,0,0,0,1.87-1.14l4.89-9.52Z"/>
            <path class="fill-white"
                  d="M114.09,118.17h-4.26l1,6.45h-3l-3.31-6.45H99.79l4.89,9.52a2.1,2.1,0,0,0,1.87,1.14h6.76a2.1,2.1,0,0,0,2.08-2.43Z"/>
            <polygon class="cls-2 fill-white" points="125.69 56.99 118.16 87.48 121.62 91.02 130.02 57 125.69 56.99"/>
            <polygon class="cls-2 fill-white" points="14.3 56.98 22.78 91.33 26.25 87.81 18.64 56.98 14.3 56.98"/>
            <path class="fill-white" d="M94.66,4h0m0,0L92.25,21.75H52.07L49.66,4h45m0-4h-45a4,4,0,0,0-4,4.54l2.41,17.75a4,4,0,0,0,4,3.46H92.25a4,4,0,0,0,4-3.46L98.6,4.69A4,4,0,0,0,94.67,0Zm0,8h0Z"/>
            <path class="cls-2 fill-white"
                  d="M114,15A19.77,19.77,0,0,0,98.25,7.34h-2v4.21h2a15.69,15.69,0,0,1,15.2,19.58l-2.57,10.05-3.67,14.36-3.66,13.89H40.85L37.22,55.65l-3.7-14.48L30.94,31.12a15.69,15.69,0,0,1,15.2-19.58h2V7.34h-2A19.89,19.89,0,0,0,26.72,31.49l6,23.51.48,1.83,0,.06h0l6.49,24.64a10.76,10.76,0,0,0,10.4,8H94.32a10.75,10.75,0,0,0,10.39-8l6.49-24.64h0l.08-.33,1.61-6.11,3.23-12.63-.06,0,1.46-5.7A19.77,19.77,0,0,0,114,15ZM100.64,80.46a6.54,6.54,0,0,1-6.32,4.87H50.08a6.55,6.55,0,0,1-6.33-4.87L42,73.63h60.49Z"/>
            <path class="fill-colored" d="M119.56,89.53,132,111.84H14.3L26.76,89.53h92.79m0-4.2H26.76a4.2,4.2,0,0,0-3.67,2.15L10.64,109.8A4.2,4.2,0,0,0,14.3,116H132a4.2,4.2,0,0,0,3.67-6.25L123.22,87.49a4.2,4.2,0,0,0-3.67-2.15Z"/>
            <line class="cls-1 colored" x1="18.32" y1="100.69" x2="127.98" y2="100.69"/>
        </g>
    </g>
</svg>
