<svg xmlns="http://www.w3.org/2000/svg" viewBox="0 0 168.93 147.69">
    <title>ic-4</title>
    <defs>
        <style>
            .fill-white {fill: #d2d2d3; }
            .white { stroke: #d2d2d3;}
            .fill-colored{fill: #4a4a4c; }
            .colored{ stroke: #4a4a4c;}
        </style>
    </defs>
    <g id="Layer_2" data-name="Layer 2">
        <g id="Layer_1-2" data-name="Layer 1">
            <path class="fill-colored" d="M135.95,40.28l-1.33-1.83,1-1.41L112.78,20.42l22-16L132.41,1.2l-23,16.75L84.69,0l-.21.29L84.27,0,59.59,17.95,36.55,1.2,34.2,4.43l22,16L33.32,37l1,1.41L33,40.28,55.84,56.87,39.91,68.45l2.35,3.24,17-12.34L81.08,75.22l-17.94,13L65.5,91.5l19-13.8,19,13.8,2.35-3.23-17.94-13,21.84-15.88,17,12.34L129,68.45,113.13,56.87Zm-4.73-1.51L109.73,54.4,87.88,38.52l21.49-15.63Zm-46.74-34L106,20.42,84.48,36,63,20.42Zm-46.74,34L59.59,22.89,81.08,38.52,59.24,54.4Zm46.74,34L62.64,56.87,84.48,41l21.84,15.88Z"/>
            <path class="fill-white" d="M167.71,57c-2.35-3.52-7.8-5.21-16.15-5a27.83,27.83,0,0,0-15.23,4.45V2.21a2.1,2.1,0,0,0-2.1-2.1H34.71a2.1,2.1,0,0,0-2.1,2.1v54.2A27.83,27.83,0,0,0,17.37,52C9,51.75,3.57,53.44,1.22,57a7.76,7.76,0,0,0-.61,7.18c2.44,5.5,9.53,4.47,13.76,3.85A19.78,19.78,0,0,1,17,67.71c7,.28,9.77,6.06,11.79,11.46a90.13,90.13,0,0,1,2.71,9.08l-13.8,39.9a2,2,0,0,0,1.89,2.65h10l.75,14.88a2.1,2.1,0,0,0,2.1,2h5a2.11,2.11,0,0,0,2.09-1.84l1.86-15h86.14l1.86,15a2.11,2.11,0,0,0,2.09,1.84h5a2.1,2.1,0,0,0,2.1-2l.75-14.88h10a2,2,0,0,0,1.89-2.65l-13.8-39.9a90.11,90.11,0,0,1,2.71-9.08c2-5.4,4.76-11.19,11.79-11.46a19.78,19.78,0,0,1,2.66.29c4.23.61,11.32,1.64,13.76-3.85A7.76,7.76,0,0,0,167.71,57Zm-130.9-.38V4.31h95.31V60c-7.07,7.62-8.12,18.28-8.28,21.11a90.21,90.21,0,0,1-24.11,8.66H69.22a90.18,90.18,0,0,1-24.13-8.67c-.15-2.83-1.21-13.48-8.27-21.09Zm75.55,43a2.08,2.08,0,0,0-.6.19A93.49,93.49,0,0,1,84.47,104,93.55,93.55,0,0,1,57,99.68a2.12,2.12,0,0,0-.44-.14c-2.3-.72-4.42-1.48-6.36-2.22-7.12-3.4-10.68-5.91-12.45-7.55H54.08a87.91,87.91,0,0,0,30.39,5.81,87.92,87.92,0,0,0,30.38-5.8h16.3c-1.78,1.65-5.34,4.17-12.49,7.57C116.74,98.08,114.64,98.83,112.37,99.54ZM36,87.5l.06-.16a2,2,0,0,0,.09-.84,4,4,0,0,1,.34-.73,4.22,4.22,0,0,1,5.78-1.42l.47.27v0h0a84.28,84.28,0,0,0,11.29,5.13H37.77A5.55,5.55,0,0,1,36,87.5Zm33.21,2.27H99.71a73.43,73.43,0,0,1-30.48,0Zm63.62-2.44.05.15a5.56,5.56,0,0,1-1.74,2.28h-16.3a84.53,84.53,0,0,0,11.29-5.13h0l.49-.28a4.22,4.22,0,0,1,5.78,1.43,4.06,4.06,0,0,1,.33.7A2,2,0,0,0,132.85,87.33ZM17.19,63.71h-.25A24,24,0,0,0,13.8,64c-4.38.64-8.41,1-9.53-1.52a3.75,3.75,0,0,1,.28-3.33c.87-1.3,3.67-3.46,12.73-3.23C36.88,56.42,40.36,73.39,41,79.6a8.52,8.52,0,0,0-4.16.63,9.24,9.24,0,0,0-2.67,1.89l-.09.09c-.57-1.78-1.12-3.43-1.49-4.44C30.91,73.34,27.46,64.12,17.19,63.71Zm18.4,79.77H34.5l-.64-12.67h3.3Zm98.85,0h-1.09l-1.57-12.67h3.3Zm-112-16.67L33.91,93.62a8.26,8.26,0,0,0,1.85,1.53,92.58,92.58,0,0,0,15.18,6.91c.86.39,1.73.78,2.64,1.17,7.27,3.15,22.89,5.08,30.89,5.08s23.62-1.93,30.89-5.08l2.59-1.15a92.68,92.68,0,0,0,15.25-6.94A8.24,8.24,0,0,0,135,93.63l11.47,33.19ZM164.66,62.52c-1.12,2.52-5.14,2.15-9.53,1.52a24,24,0,0,0-3.14-.33h-.25c-10.27.4-13.72,9.63-15.38,14.06-.38,1-.93,2.66-1.49,4.43l-.08-.08a9.24,9.24,0,0,0-2.67-1.89v0a8.54,8.54,0,0,0-4.17-.63c.61-6.2,4.09-23.19,23.7-23.66,9.06-.22,11.86,1.93,12.73,3.23A3.75,3.75,0,0,1,164.66,62.52Z"/>
        </g>
    </g>
</svg>