<svg xmlns="http://www.w3.org/2000/svg" viewBox="0 0 65.2 63.2"><defs><style>.cls-1{fill:none;stroke:#fff;stroke-linecap:round;stroke-linejoin:round;stroke-width:1.2px;}</style></defs><title>icon_slv</title><g id="Layer_2" data-name="Layer 2"><g id="Isolation_Mode" data-name="Isolation Mode"><circle class="cls-1" cx="33.6" cy="17.6" r="17"/><path class="cls-1" d="M42.6,17.68a9,9,0,1,1-18,0"/><line class="cls-1" x1="28.6" y1="9.6" x2="28.6" y2="11.6"/><line class="cls-1" x1="38.6" y1="9.6" x2="38.6" y2="11.6"/><path class="cls-1" d="M56.6,46.68a9,9,0,1,1-18,0"/><line class="cls-1" x1="42.6" y1="38.6" x2="42.6" y2="40.6"/><line class="cls-1" x1="52.6" y1="38.6" x2="52.6" y2="40.6"/><path class="cls-1" d="M25.6,44.68a9,9,0,1,1-18,0"/><line class="cls-1" x1="11.6" y1="36.6" x2="11.6" y2="38.6"/><line class="cls-1" x1="21.6" y1="36.6" x2="21.6" y2="38.6"/><path class="cls-1" d="M27.6,57.37a17,17,0,1,1-15-30"/><path class="cls-1" d="M31.69,39.6A17,17,0,1,0,51.75,29.11"/></g></g></svg>