<svg width="110" height="16" xmlns="http://www.w3.org/2000/svg">
 <defs>
  <clipPath id="clip0">
   <rect id="svg_1" x="22.3999" y="0" fill="white" height="16" width="16"/>
  </clipPath>
  <clipPath id="clip1">
   <rect id="svg_2" x="44.799801" y="0" fill="white" height="16" width="16"/>
  </clipPath>
  <clipPath id="clip2">
   <rect id="svg_3" x="67.200203" y="0" fill="white" height="16" width="16"/>
  </clipPath>
  <clipPath id="clip3">
   <rect id="svg_4" x="89.600098" y="0" fill="white" height="16" width="16"/>
  </clipPath>
 </defs>
 <g>
  <title>background</title>
  <rect fill="none" id="canvas_background" height="18" width="112" y="-1" x="-1"/>
 </g>
 <g>
  <title>Layer 1</title>
  <path id="svg_5" fill="rgba(255, 255, 255, 0.1)" d="m7.44526,0.707253c0.10458,-0.211244 0.31997,-0.34517 0.55538,-0.34517c0.2354,0 0.45113,0.133926 0.55537,0.34517l1.99199,4.036757c0.0901,0.1826 0.2647,0.30928 0.4667,0.33861l4.4547,0.6472c0.2337,0.03382 0.427,0.19743 0.4998,0.42145c0.0729,0.22401 0.0121,0.47047 -0.1567,0.63477l-3.2232,3.14242c-0.146,0.14224 -0.2126,0.34724 -0.1784,0.54814l0.7607,4.4371c0.0394,0.2327 -0.0555,0.4674 -0.2468,0.6062c-0.1909,0.138 -0.4432,0.1563 -0.6523,0.0473l-3.98468,-2.0952c-0.18018,-0.0949 -0.39591,-0.0949 -0.57644,0l-3.98464,2.0948c-0.20848,0.1094 -0.46149,0.0915 -0.65237,-0.0469c-0.19088,-0.1384 -0.28614,-0.3735 -0.24645,-0.6062l0.76076,-4.4371c0.03451,-0.2009 -0.03245,-0.4059 -0.17846,-0.54814l-3.223193,-3.14242c-0.168788,-0.16465 -0.229537,-0.41076 -0.156707,-0.63477c0.072831,-0.22402 0.266471,-0.38763 0.500151,-0.42145l4.455449,-0.6472c0.20158,-0.02933 0.37624,-0.15601 0.46633,-0.33895l1.99301,-4.036417z"/>
  <path id="svg_7" fill="rgba(255, 255, 255, 0.1)" d="m29.8452,0.707253c0.1045,-0.211244 0.3199,-0.34517 0.5553,-0.34517c0.2354,0 0.4512,0.133926 0.5554,0.34517l1.992,4.036757c0.0901,0.1826 0.2647,0.30928 0.4667,0.33861l4.4547,0.6472c0.2337,0.03382 0.427,0.19743 0.4998,0.42145c0.0729,0.22401 0.0121,0.47047 -0.1567,0.63477l-3.2232,3.14242c-0.146,0.14224 -0.2126,0.34724 -0.1784,0.54814l0.7607,4.4371c0.0394,0.2327 -0.0555,0.4674 -0.2468,0.6062c-0.1908,0.138 -0.4432,0.1563 -0.6523,0.0473l-3.9847,-2.0952c-0.1802,-0.0949 -0.3959,-0.0949 -0.5764,0l-3.9847,2.0948c-0.2084,0.1094 -0.4614,0.0915 -0.6523,-0.0469c-0.1909,-0.1384 -0.2862,-0.3735 -0.2465,-0.6062l0.7608,-4.4371c0.0345,-0.2009 -0.0325,-0.4059 -0.1785,-0.54814l-3.2232,-3.14242c-0.1688,-0.16465 -0.2295,-0.41076 -0.1567,-0.63477c0.0729,-0.22402 0.2665,-0.38763 0.5002,-0.42145l4.4554,-0.6472c0.2016,-0.02933 0.3763,-0.15601 0.4663,-0.33895l1.9931,-4.036417z"/>
  <path id="svg_9" fill="rgba(255, 255, 255, 0.1)" d="m51.445311,0.707253c0.1045,-0.211244 0.3199,-0.34517 0.5553,-0.34517c0.2354,0 0.4512,0.133926 0.5554,0.34517l1.992,4.036757c0.0901,0.1826 0.2647,0.30928 0.4667,0.33861l4.4547,0.6472c0.2337,0.03382 0.427,0.19743 0.4998,0.42145c0.0729,0.22401 0.0121,0.47047 -0.1567,0.63477l-3.2232,3.14242c-0.146,0.14224 -0.2126,0.34724 -0.1784,0.54814l0.7607,4.4371c0.0394,0.2327 -0.0555,0.4674 -0.2468,0.6062c-0.1908,0.138 -0.4432,0.1563 -0.6523,0.0473l-3.9847,-2.0952c-0.1802,-0.0949 -0.3959,-0.0949 -0.5764,0l-3.9847,2.0948c-0.2084,0.1094 -0.4614,0.0915 -0.6523,-0.0469c-0.1909,-0.1384 -0.2862,-0.3735 -0.2465,-0.6062l0.7608,-4.4371c0.0345,-0.2009 -0.0325,-0.4059 -0.1785,-0.54814l-3.2232,-3.14242c-0.1688,-0.16465 -0.2295,-0.41076 -0.1567,-0.63477c0.0729,-0.22402 0.2665,-0.38763 0.5002,-0.42145l4.4554,-0.6472c0.2016,-0.02933 0.3763,-0.15601 0.4664,-0.33895l1.993,-4.036417z"/>
  <path id="svg_11" fill="rgba(255, 255, 255, 0.1)" d="m73.445312,0.707253c0.1045,-0.211244 0.3199,-0.34517 0.5553,-0.34517c0.2354,0 0.4512,0.133926 0.5554,0.34517l1.992,4.036757c0.0901,0.1826 0.2647,0.30928 0.4667,0.33861l4.4547,0.6472c0.2337,0.03382 0.427,0.19743 0.4998,0.42145c0.0729,0.22401 0.0121,0.47047 -0.1567,0.63477l-3.2232,3.14242c-0.146,0.14224 -0.2126,0.34724 -0.1784,0.54814l0.7607,4.4371c0.0394,0.2327 -0.0556,0.4674 -0.2468,0.6062c-0.1909,0.138 -0.4432,0.1563 -0.6523,0.0473l-3.9847,-2.0952c-0.1802,-0.0949 -0.3959,-0.0949 -0.5764,0l-3.9847,2.0948c-0.2084,0.1094 -0.4615,0.0915 -0.6523,-0.0469c-0.1909,-0.1384 -0.2862,-0.3735 -0.2465,-0.6062l0.7608,-4.4371c0.0345,-0.2009 -0.0325,-0.4059 -0.1785,-0.54814l-3.2232,-3.14242c-0.1688,-0.16465 -0.2295,-0.41076 -0.1567,-0.63477c0.0728,-0.22402 0.2665,-0.38763 0.5002,-0.42145l4.4554,-0.6472c0.2016,-0.02933 0.3763,-0.15601 0.4663,-0.33895l1.9931,-4.036417z"/>
  <path id="svg_13" fill="rgba(255, 255, 255, 0.1)" d="m95.44531,0.707253c0.1045,-0.211244 0.3199,-0.34517 0.5553,-0.34517c0.2354,0 0.4512,0.133926 0.5554,0.34517l1.9919,4.036757c0.09,0.1826 0.265,0.30928 0.467,0.33861l4.455,0.6472c0.233,0.03382 0.426,0.19743 0.499,0.42145c0.073,0.22401 0.012,0.47047 -0.156,0.63477l-3.224,3.14242c-0.146,0.14224 -0.212,0.34724 -0.178,0.54814l0.761,4.4371c0.039,0.2327 -0.056,0.4674 -0.247,0.6062c-0.191,0.138 -0.443,0.1563 -0.652,0.0473l-3.9851,-2.0952c-0.1802,-0.0949 -0.3959,-0.0949 -0.5764,0l-3.9847,2.0948c-0.2084,0.1094 -0.4615,0.0915 -0.6523,-0.0469c-0.1909,-0.1384 -0.2862,-0.3735 -0.2465,-0.6062l0.7608,-4.4371c0.0345,-0.2009 -0.0325,-0.4059 -0.1785,-0.54814l-3.2232,-3.14242c-0.1688,-0.16465 -0.2295,-0.41076 -0.1567,-0.63477c0.0728,-0.22402 0.2665,-0.38763 0.5002,-0.42145l4.4554,-0.6472c0.2016,-0.02933 0.3763,-0.15601 0.4663,-0.33895l1.9931,-4.036417z"/>
 </g>
</svg>