<?xml version="1.0" encoding="utf-8"?>
<!-- Generator: Adobe Illustrator 21.1.0, SVG Export Plug-In . SVG Version: 6.00 Build 0)  -->
<svg version="1.1" id="Слой_1" xmlns="http://www.w3.org/2000/svg" xmlns:xlink="https://www.w3.org/1999/xlink" x="0px" y="0px"
	 viewBox="0 0 150 80" style="enable-background:new 0 0 150 80;" xml:space="preserve">
<style type="text/css">
	.st0{fill:#D4D4D4;}
</style>
<path class="st0" d="M48.4,52.4l11.8-38.5h3.4L47.4,66.1h-4.2L27,13.9h3.5l11.8,38.8l2.9,10h0.3L48.4,52.4z M75,66.1V13.9h-3.3v52.2
	H75z M104.3,43.7H91.5l0.1,22.4H88V13.9h15.6c2.1,0,4.1,0.3,5.9,0.9c1.9,0.6,3.5,1.5,4.9,2.7c1.4,1.2,2.5,2.7,3.2,4.5
	c0.8,1.8,1.2,4,1.2,6.5c0,1.5-0.2,3.2-0.6,5c-0.4,1.8-1.2,3.4-2.2,4.9c-1.1,1.5-2.6,2.8-4.5,3.8C109.7,43.2,107.2,43.7,104.3,43.7z
	 M104.1,41c1.4,0,2.7-0.2,4.1-0.6c1.3-0.4,2.6-1,3.7-2c1.1-0.9,2-2.2,2.6-3.7c0.7-1.6,1-3.5,1-5.9c0-2-0.3-3.8-0.9-5.4
	c-0.6-1.5-1.4-2.8-2.5-3.8c-1-1-2.3-1.7-3.7-2.2c-1.4-0.5-2.9-0.7-4.5-0.7H91.5V41H104.1z"/>
</svg>
