<svg xmlns="http://www.w3.org/2000/svg" xmlns:xlink="https://www.w3.org/1999/xlink" width="80" height="62"><rect id="backgroundrect" width="100%" height="100%" x="0" y="0" fill="none" stroke="none"/>
    
<g class="currentLayer" style=""><title>Layer 1</title><path fill-rule="evenodd" opacity="0.8" fill="rgb(255, 255, 255)" d="M79.66510266053676,17.805 L79.65210266053677,17.819 C79.45210266053677,18.006 79.19110266053677,18.109 78.91610266053677,18.109 C78.62610266053676,18.109 78.35210266053677,17.997 78.14610266053677,17.793 C67.97410266053677,7.702 54.42610266053676,2.144 40.00010266053677,2.144 C25.573102660536765,2.144 12.025102660536765,7.702 1.853102660536766,17.793 C1.6461026605367661,17.997 1.373102660536766,18.109 1.083102660536766,18.109 C0.808102660536766,18.109 0.5471026605367661,18.006 0.3471026605367661,17.819 L0.33410266053676607,17.806 C0.1231026605367661,17.607 0.004102660536766084,17.34 0.00010266053676608045,17.052 C-0.003897339463233923,16.76 0.1091026605367661,16.486 0.31810266053676606,16.279 C5.282102660536766,11.357 11.055102660536766,7.446999999999999 17.479102660536768,4.656 C24.592102660536767,1.5659999999999998 32.169102660536765,1.1102230246251565e-16 40.00010266053677,1.1102230246251565e-16 C47.83010266053677,1.1102230246251565e-16 55.407102660536765,1.5659999999999998 62.520102660536764,4.656 C68.94410266053677,7.446999999999999 74.71710266053677,11.357 79.68110266053677,16.278 C79.89010266053677,16.486 80.00210266053676,16.76 79.99910266053676,17.052 C79.99510266053677,17.34 79.87610266053676,17.607 79.66510266053676,17.805 zM23.502102660536767,19.918 C28.693102660536766,17.557 34.24310266053676,16.36 40.00010266053677,16.36 C45.755102660536764,16.36 51.306102660536766,17.557 56.49710266053677,19.918 C61.065102660536766,21.995 65.14110266053676,24.874 68.61210266053676,28.475 C68.81510266053677,28.685 68.92010266053677,28.962 68.90810266053677,29.253 C68.89610266053677,29.544 68.76810266053677,29.811 68.54810266053677,30.005 L68.53310266053677,30.018 C68.33610266053677,30.19 68.08310266053677,30.286 67.82110266053677,30.286 C67.52510266053676,30.286 67.25010266053677,30.169 67.04610266053676,29.958 C60.017102660536764,22.679 50.15910266053677,18.505 40.00010266053677,18.505 C29.840102660536765,18.505 19.982102660536768,22.679 12.953102660536766,29.958 C12.749102660536765,30.169 12.474102660536767,30.286 12.178102660536766,30.286 C11.916102660536765,30.286 11.663102660536767,30.19 11.466102660536766,30.018 L11.451102660536765,30.004 C11.231102660536767,29.811 11.103102660536766,29.544 11.091102660536766,29.253 C11.079102660536766,28.962 11.184102660536766,28.685 11.387102660536765,28.475 C14.858102660536765,24.874 18.934102660536766,21.995 23.502102660536767,19.918 zM29.508102660536768,35.216 C32.77510266053677,33.56 36.30510266053677,32.72 39.999102660536764,32.72 C43.694102660536764,32.72 47.224102660536765,33.56 50.49110266053677,35.216 C53.14610266053677,36.562 55.58210266053677,38.469 57.535102660536765,40.731 C57.73110266053676,40.957 57.821102660536766,41.245 57.78710266053677,41.541 C57.754102660536766,41.836 57.60410266053677,42.097 57.364102660536766,42.275 L57.35010266053676,42.285 C57.16210266053677,42.424 56.940102660536766,42.497 56.706102660536764,42.497 C56.392102660536764,42.497 56.096102660536765,42.363 55.89410266053677,42.127 C51.931102660536766,37.512 46.13710266053677,34.865 39.999102660536764,34.865 C33.86210266053676,34.865 28.068102660536766,37.512 24.105102660536765,42.127 C23.903102660536767,42.363 23.607102660536768,42.497 23.293102660536768,42.497 C23.059102660536766,42.497 22.836102660536767,42.424 22.649102660536766,42.285 L22.635102660536766,42.275 C22.395102660536764,42.097 22.244102660536765,41.836 22.211102660536767,41.541 C22.178102660536766,41.245 22.268102660536766,40.957 22.463102660536766,40.731 C24.417102660536766,38.469 26.853102660536766,36.562 29.508102660536768,35.216 zM39.572102660536764,49.094 C39.71410266053677,49.086 39.858102660536765,49.081 39.999102660536764,49.081 L40.00010266053677,49.081 C41.79210266053676,49.081 43.526102660536765,49.826 44.757102660536766,51.125 C46.004102660536766,52.441 46.627102660536764,54.159 46.51010266053677,55.963 C46.30210266053677,59.19 43.68610266053677,61.779 40.42610266053676,61.986 C40.28410266053677,61.995 40.14110266053677,61.999 40.00010266053677,61.999 C38.20710266053677,61.999 36.47310266053677,61.254 35.242102660536766,59.956 C33.995102660536766,58.64 33.37210266053677,56.921 33.489102660536766,55.118 C33.697102660536764,51.89 36.313102660536764,49.301 39.572102660536764,49.094 zM35.66710266053676,56.008 C35.88110266053677,58.011 37.505102660536764,59.618 39.52810266053677,59.83 C39.684102660536766,59.846000000000004 39.843102660536765,59.855 39.999102660536764,59.855 C41.23210266053677,59.855 42.413102660536765,59.333 43.239102660536766,58.423 C44.065102660536766,57.515 44.46310266053677,56.294 44.33210266053677,55.073 C44.11810266053676,53.071 42.495102660536766,51.463 40.47210266053676,51.251 C40.315102660536766,51.234 40.15610266053677,51.226 39.999102660536764,51.226 C38.767102660536764,51.226 37.58610266053677,51.748 36.75910266053677,52.658 C35.934102660536766,53.566 35.53610266053676,54.787 35.66710266053676,56.008 z" id="svg_1" class=""/></g></svg>