<svg xmlns="http://www.w3.org/2000/svg" xmlns:xlink="https://www.w3.org/1999/xlink" width="80" height="63" style=""><rect id="backgroundrect" width="100%" height="100%" x="0" y="0" fill="none" stroke="none"/>
    
<g class="currentLayer" style=""><title>Layer 1</title><path fill-rule="evenodd" opacity="0.8" fill="rgb(255, 255, 255)" d="M79.00700000238419,63.380000022411345 L61.890000002384184,63.380000022411345 C61.448000002384184,63.380000022411345 61.08900000238419,63.02100002241134 61.08900000238419,62.58000002241135 L61.08900000238419,59.77500002241135 C61.08900000238419,56.08000002241135 64.09600000238419,53.07300002241135 67.79200000238419,53.07300002241135 L73.10400000238418,53.07300002241135 C76.80000000238418,53.07300002241135 79.80700000238419,56.08000002241135 79.80700000238419,59.77500002241135 L79.80700000238419,62.58000002241135 C79.80700000238419,63.02100002241134 79.44800000238419,63.380000022411345 79.00700000238419,63.380000022411345 zM78.20700000238419,59.77500002241135 C78.20700000238419,56.962000022411345 75.91800000238419,54.673000022411344 73.10400000238418,54.673000022411344 L67.79200000238419,54.673000022411344 C64.97900000238418,54.673000022411344 62.69000000238419,56.962000022411345 62.69000000238419,59.77500002241135 L62.69000000238419,61.779000022411346 L78.20700000238419,61.779000022411346 L78.20700000238419,59.77500002241135 zM75.06200000238418,35.420000022411344 L4.744000002384186,35.420000022411344 C4.303000002384186,35.420000022411344 3.944000002384186,35.06100002241135 3.944000002384186,34.62000002241135 L3.944000002384186,0.8000000224113464 C3.944000002384186,0.35800002241134654 4.303000002384186,2.2411346445316838e-8 4.744000002384186,2.2411346445316838e-8 L75.06200000238418,2.2411346445316838e-8 C75.50400000238419,2.2411346445316838e-8 75.86300000238418,0.35800002241134654 75.86300000238418,0.8000000224113464 L75.86300000238418,34.62000002241135 C75.86300000238418,35.06100002241135 75.50400000238419,35.420000022411344 75.06200000238418,35.420000022411344 zM74.26200000238418,1.6000000224113466 L5.544000002384186,1.6000000224113466 L5.544000002384186,33.819000022411345 L74.26200000238418,33.819000022411345 L74.26200000238418,1.6000000224113466 zM12.015000002384186,53.07300002241135 C15.710000002384184,53.07300002241135 18.717000002384186,56.08000002241135 18.717000002384186,59.77500002241135 L18.717000002384186,62.58000002241135 C18.717000002384186,63.02100002241134 18.358000002384188,63.380000022411345 17.917000002384185,63.380000022411345 L0.8000000023841858,63.380000022411345 C0.35900000238418595,63.380000022411345 2.3841858487472223e-9,63.02100002241134 2.3841858487472223e-9,62.58000002241135 L2.3841858487472223e-9,59.77500002241135 C2.3841858487472223e-9,56.08000002241135 3.007000002384186,53.07300002241135 6.702000002384186,53.07300002241135 L12.015000002384186,53.07300002241135 zM1.6000000023841858,59.77500002241135 L1.6000000023841858,61.779000022411346 L17.117000002384184,61.779000022411346 L17.117000002384184,59.77500002241135 C17.117000002384184,56.962000022411345 14.828000002384186,54.673000022411344 12.015000002384186,54.673000022411344 L6.702000002384186,54.673000022411344 C3.8890000023841855,54.673000022411344 1.6000000023841858,56.962000022411345 1.6000000023841858,59.77500002241135 zM4.004000002384186,48.907000022411346 L4.004000002384186,46.39000002241135 C4.004000002384186,43.02800002241135 6.739000002384186,40.29300002241135 10.102000002384186,40.29300002241135 L14.870000002384186,40.29300002241135 C18.233000002384188,40.29300002241135 20.969000002384185,43.02800002241135 20.969000002384185,46.39000002241135 L20.969000002384185,48.907000022411346 C20.969000002384185,49.34800002241135 20.610000002384187,49.70700002241135 20.169000002384188,49.70700002241135 L4.804000002384186,49.70700002241135 C4.363000002384186,49.70700002241135 4.004000002384186,49.34800002241135 4.004000002384186,48.907000022411346 zM5.604000002384186,48.10700002241135 L19.369000002384187,48.10700002241135 L19.369000002384187,46.39000002241135 C19.369000002384187,43.91100002241134 17.351000002384186,41.89300002241135 14.870000002384186,41.89300002241135 L10.102000002384186,41.89300002241135 C7.622000002384186,41.89300002241135 5.604000002384186,43.91100002241134 5.604000002384186,46.39000002241135 L5.604000002384186,48.10700002241135 zM38.447000002384186,49.70700002241135 L23.082000002384184,49.70700002241135 C22.641000002384185,49.70700002241135 22.282000002384187,49.34800002241135 22.282000002384187,48.907000022411346 L22.282000002384187,46.39000002241135 C22.282000002384187,43.02800002241135 25.018000002384184,40.29300002241135 28.380000002384186,40.29300002241135 L33.14800000238419,40.29300002241135 C36.511000002384186,40.29300002241135 39.24700000238418,43.02800002241135 39.24700000238418,46.39000002241135 L39.24700000238418,48.907000022411346 C39.24700000238418,49.34800002241135 38.88800000238419,49.70700002241135 38.447000002384186,49.70700002241135 zM37.646000002384184,46.39000002241135 C37.646000002384184,43.91100002241134 35.62900000238419,41.89300002241135 33.14800000238419,41.89300002241135 L28.380000002384186,41.89300002241135 C25.900000002384186,41.89300002241135 23.882000002384185,43.91100002241134 23.882000002384185,46.39000002241135 L23.882000002384185,48.10700002241135 L37.646000002384184,48.10700002241135 L37.646000002384184,46.39000002241135 zM27.065000002384185,53.07300002241135 L32.378000002384184,53.07300002241135 C36.07400000238419,53.07300002241135 39.08000000238419,56.08000002241135 39.08000000238419,59.77500002241135 L39.08000000238419,62.58000002241135 C39.08000000238419,63.02100002241134 38.722000002384185,63.380000022411345 38.280000002384185,63.380000022411345 L21.163000002384187,63.380000022411345 C20.722000002384185,63.380000022411345 20.363000002384187,63.02100002241134 20.363000002384187,62.58000002241135 L20.363000002384187,59.77500002241135 C20.363000002384187,56.08000002241135 23.370000002384185,53.07300002241135 27.065000002384185,53.07300002241135 zM21.963000002384184,61.779000022411346 L37.48000000238419,61.779000022411346 L37.48000000238419,59.77500002241135 C37.48000000238419,56.962000022411345 35.191000002384186,54.673000022411344 32.378000002384184,54.673000022411344 L27.065000002384185,54.673000022411344 C24.252000002384186,54.673000022411344 21.963000002384184,56.962000022411345 21.963000002384184,59.77500002241135 L21.963000002384184,61.779000022411346 zM46.658000002384185,40.29300002241135 L51.42700000238418,40.29300002241135 C54.789000002384185,40.29300002241135 57.52500000238419,43.02800002241135 57.52500000238419,46.39000002241135 L57.52500000238419,48.907000022411346 C57.52500000238419,49.34800002241135 57.16600000238419,49.70700002241135 56.725000002384185,49.70700002241135 L41.36000000238418,49.70700002241135 C40.91900000238419,49.70700002241135 40.560000002384186,49.34800002241135 40.560000002384186,48.907000022411346 L40.560000002384186,46.39000002241135 C40.560000002384186,43.02800002241135 43.295000002384185,40.29300002241135 46.658000002384185,40.29300002241135 zM42.16000000238419,48.10700002241135 L55.92500000238419,48.10700002241135 L55.92500000238419,46.39000002241135 C55.92500000238419,43.91100002241134 53.90700000238419,41.89300002241135 51.42700000238418,41.89300002241135 L46.658000002384185,41.89300002241135 C44.17800000238419,41.89300002241135 42.16000000238419,43.91100002241134 42.16000000238419,46.39000002241135 L42.16000000238419,48.10700002241135 zM58.838000002384184,48.907000022411346 L58.838000002384184,46.39000002241135 C58.838000002384184,43.02800002241135 61.57400000238419,40.29300002241135 64.93600000238419,40.29300002241135 L69.70500000238418,40.29300002241135 C73.06700000238419,40.29300002241135 75.80300000238418,43.02800002241135 75.80300000238418,46.39000002241135 L75.80300000238418,48.907000022411346 C75.80300000238418,49.34800002241135 75.44400000238419,49.70700002241135 75.00300000238418,49.70700002241135 L59.63800000238419,49.70700002241135 C59.197000002384186,49.70700002241135 58.838000002384184,49.34800002241135 58.838000002384184,48.907000022411346 zM60.438000002384186,48.10700002241135 L74.20300000238419,48.10700002241135 L74.20300000238419,46.39000002241135 C74.20300000238419,43.91100002241134 72.18500000238419,41.89300002241135 69.70500000238418,41.89300002241135 L64.93600000238419,41.89300002241135 C62.45600000238419,41.89300002241135 60.438000002384186,43.91100002241134 60.438000002384186,46.39000002241135 L60.438000002384186,48.10700002241135 zM47.429000002384186,53.07300002241135 L52.74100000238418,53.07300002241135 C56.43700000238419,53.07300002241135 59.444000002384186,56.08000002241135 59.444000002384186,59.77500002241135 L59.444000002384186,62.58000002241135 C59.444000002384186,63.02100002241134 59.085000002384184,63.380000022411345 58.643000002384184,63.380000022411345 L41.52600000238419,63.380000022411345 C41.085000002384184,63.380000022411345 40.72600000238418,63.02100002241134 40.72600000238418,62.58000002241135 L40.72600000238418,59.77500002241135 C40.72600000238418,56.08000002241135 43.73300000238419,53.07300002241135 47.429000002384186,53.07300002241135 zM42.326000002384184,61.779000022411346 L57.84300000238419,61.779000022411346 L57.84300000238419,59.77500002241135 C57.84300000238419,56.962000022411345 55.55500000238418,54.673000022411344 52.74100000238418,54.673000022411344 L47.429000002384186,54.673000022411344 C44.615000002384186,54.673000022411344 42.326000002384184,56.962000022411345 42.326000002384184,59.77500002241135 L42.326000002384184,61.779000022411346 z" id="svg_1" class=""/></g></svg>